<svg version="1.1" id="Layer_1" xmlns="http://www.w3.org/2000/svg" xmlns:xlink="http://www.w3.org/1999/xlink" x="0px" y="0px"
	 width="100%" viewBox="0 0 1024 1024" enable-background="new 0 0 1024 1024" xml:space="preserve">
<path fill="#FFFFFF" opacity="1.000000" stroke="none" 
	d="
M675.000000,1025.000000 
	C450.000000,1025.000000 225.500000,1025.000000 1.000000,1025.000000 
	C1.000000,683.666687 1.000000,342.333344 1.000000,1.000000 
	C342.333344,1.000000 683.666687,1.000000 1025.000000,1.000000 
	C1025.000000,342.333344 1025.000000,683.666687 1025.000000,1025.000000 
	C908.500000,1025.000000 792.000000,1025.000000 675.000000,1025.000000 
M650.386414,225.009506 
	C650.139893,225.315887 649.893372,225.622269 649.073914,226.204422 
	C647.025024,228.358810 644.976074,230.513214 642.419617,232.969406 
	C642.235718,233.302399 642.051819,233.635406 641.974976,233.960144 
	C641.974976,233.960144 641.953003,233.855103 641.414429,234.016068 
	C641.229980,234.330460 641.045532,234.644852 640.971191,234.953201 
	C640.971191,234.953201 640.949097,234.845093 640.406189,235.005783 
	C640.220520,235.320023 640.034851,235.634262 639.952454,235.975296 
	C639.952454,235.975296 639.964539,235.869263 639.392578,236.014175 
	C639.151550,236.319626 638.910522,236.625076 638.287109,237.024323 
	C638.042969,237.180832 637.924377,237.404022 637.429504,237.986877 
	C637.244751,238.315048 637.060059,238.643234 636.980042,238.969101 
	C636.980042,238.969101 636.966614,238.865204 636.400940,239.024368 
	C636.158936,239.326721 635.916931,239.629074 635.192505,240.108505 
	C634.771179,240.633118 634.349792,241.157730 633.419922,241.973602 
	C633.235657,242.305069 633.051392,242.636536 632.970398,242.978546 
	C632.970398,242.978546 632.969727,242.874756 632.407288,243.033371 
	C632.165100,243.333435 631.922974,243.633514 631.104187,244.207596 
	C629.046936,246.365662 626.989624,248.523727 624.406250,250.986786 
	C624.156128,251.302490 623.906006,251.618210 623.280701,252.015366 
	C623.036865,252.162628 622.919861,252.378601 622.416870,252.980301 
	C622.179626,253.300552 621.942383,253.620804 621.312927,254.036987 
	C621.059448,254.193253 620.934753,254.420242 620.440063,255.012222 
	C620.227661,255.328659 620.015320,255.645096 619.380554,256.090088 
	C619.112244,256.265106 618.970581,256.512604 618.389709,257.158203 
	C618.196533,257.747589 618.003418,258.336975 617.917236,258.946533 
	C617.917236,258.946533 617.907593,258.838043 617.305847,258.863922 
	C617.149231,259.225464 616.992615,259.587006 616.923828,259.964447 
	C616.923828,259.964447 616.915161,259.875641 616.321167,260.305817 
	C614.698547,264.530060 612.983765,268.751465 615.934631,273.018433 
	C615.934631,273.018433 615.836731,273.028503 615.883118,273.673584 
	C616.216736,274.169769 616.550354,274.665985 616.883972,275.064636 
	C616.883972,275.064636 616.793518,275.101196 616.899963,275.552521 
	C616.899963,275.552521 617.130005,275.955109 617.321655,276.610382 
	C623.995056,283.670959 632.414612,284.178650 639.696411,277.474030 
	C646.175598,271.508453 652.316223,265.168945 658.493164,258.883209 
	C664.779419,252.486252 671.231018,246.212555 677.044617,239.402008 
	C682.128296,233.446548 680.849609,225.109436 674.874268,219.957550 
	C668.421326,214.393906 660.937012,214.675552 654.409241,220.996231 
	C654.162354,221.309769 653.915466,221.623291 653.291931,222.008102 
	C653.041565,222.146057 652.919189,222.357941 652.415894,222.952759 
	C652.236023,223.291962 652.056152,223.631180 651.982117,223.946732 
	C651.982117,223.946732 651.945923,223.844559 651.399170,223.998764 
	C651.215698,224.315689 651.032227,224.632599 650.953552,224.975998 
	C650.953552,224.975998 650.965820,224.868591 650.386414,225.009506 
M736.189209,367.260803 
	C735.822998,367.117554 735.456726,366.974274 735.180786,366.878448 
	C735.180786,366.878448 735.214600,366.782318 734.987244,366.126404 
	C732.987061,365.444153 730.986816,364.761871 728.064087,363.910736 
	C710.740723,363.990173 693.417419,364.069611 675.384827,364.069611 
	C668.762207,367.003418 665.458801,372.228455 666.041016,379.316040 
	C666.546326,385.467499 669.771606,390.046844 676.909180,392.005035 
	C693.810303,392.118988 710.711365,392.258698 727.612671,392.289978 
	C728.763062,392.292114 729.914917,391.480347 730.999390,391.022156 
	C730.999390,391.022156 731.001648,391.093445 731.650269,391.375732 
	C732.154114,390.926331 732.657898,390.476959 733.597229,390.053284 
	C733.597229,390.053284 734.014893,389.927185 734.687744,389.866272 
	C735.849609,388.260651 737.011475,386.654999 738.057190,385.025116 
	C738.057190,385.025116 738.049866,385.143646 738.552673,384.953400 
	C738.680481,384.643433 738.808289,384.333466 739.070984,383.637939 
	C739.070984,383.637939 739.060791,383.229553 739.689819,382.792267 
	C741.419128,377.657074 741.156921,372.893341 737.047241,368.937561 
	C737.047241,368.937561 737.151367,368.956146 736.991699,368.373230 
	C736.687073,368.202240 736.382385,368.031250 736.103821,367.946686 
	C736.103821,367.946686 736.178894,367.896454 736.189209,367.260803 
M351.971680,242.010315 
	C351.971680,242.010315 351.875183,242.025314 352.037689,242.574234 
	C352.343262,242.794739 352.648865,243.015228 353.175049,243.769257 
	C354.025360,244.530472 354.875702,245.291687 356.021576,246.562683 
	C356.331299,246.799423 356.641052,247.036148 357.031647,247.672653 
	C357.182434,247.935181 357.409210,248.064117 357.997314,248.564133 
	C358.324951,248.746353 358.652588,248.928574 358.924866,249.022644 
	C358.924866,249.022644 358.843079,249.087036 359.070343,249.647964 
	C359.685272,250.150635 360.300232,250.653320 360.968201,251.069427 
	C360.968201,251.069427 360.874298,251.030869 361.042145,251.563400 
	C361.352539,251.750961 361.662903,251.938522 361.984375,252.023346 
	C361.984375,252.023346 361.881042,252.020813 362.054749,252.564392 
	C362.354675,252.790405 362.654633,253.016418 363.186096,253.805130 
	C364.376801,254.886276 365.567505,255.967407 367.036530,257.541626 
	C367.352325,257.731903 367.668121,257.922180 367.980377,258.010529 
	C367.980377,258.010529 367.878845,258.020569 368.057159,258.564636 
	C368.354889,258.796539 368.652618,259.028412 369.203674,259.842896 
	C371.037933,261.582092 372.872192,263.321259 374.991699,265.566162 
	C375.321106,265.746796 375.650543,265.927399 375.963715,266.010895 
	C375.963715,266.010895 375.868500,266.036072 376.031311,266.573181 
	C376.343292,266.759796 376.655304,266.946411 376.980042,267.030518 
	C376.980042,267.030518 376.876770,267.028870 377.051331,267.556671 
	C377.358978,267.745728 377.666656,267.934784 377.984375,268.022247 
	C377.984375,268.022247 377.882294,268.020447 378.059174,268.560059 
	C378.358124,268.784088 378.657074,269.008148 379.217041,269.823151 
	C381.422028,271.892975 383.627014,273.962769 386.109924,276.541748 
	C386.437866,276.735901 386.765808,276.930054 387.429535,277.710907 
	C394.604034,282.980560 400.605927,283.507172 406.496185,279.383881 
	C411.567108,275.834137 413.200836,270.313080 411.171661,262.508575 
	C410.825317,261.960022 410.478943,261.411469 410.159882,260.950226 
	C410.159882,260.950226 410.233398,260.895752 410.237793,260.209991 
	C409.504303,259.092377 408.770813,257.974762 407.782776,256.248230 
	C400.249390,248.819366 392.715973,241.390503 384.911438,233.477997 
	C384.619598,233.256683 384.327789,233.035355 383.769562,232.215561 
	C379.867950,228.471573 375.966339,224.727600 371.829102,220.549118 
	C371.628479,220.271545 371.364838,220.081360 370.703430,219.350677 
	C363.259644,214.465897 354.479095,215.692139 349.104218,222.367096 
	C344.220856,228.431610 344.832794,235.024078 351.026520,241.434830 
	C351.343872,241.659134 351.661255,241.883423 351.971680,242.010315 
M591.596069,827.050659 
	C591.817444,826.808289 592.038818,826.565857 592.302612,826.379089 
	C592.302612,826.379089 592.371948,826.389282 593.065002,826.282471 
	C610.704224,818.500244 628.343506,810.717957 646.423096,802.949646 
	C646.746948,802.897034 646.961853,802.715454 647.843933,802.210327 
	C669.548096,796.775085 691.252258,791.339844 713.792786,785.980957 
	C718.642151,785.327393 723.488220,784.648682 728.341553,784.026001 
	C735.723083,783.079163 743.109680,782.171265 751.307922,781.752441 
	C759.924255,781.628052 768.542175,781.558838 777.155396,781.321838 
	C778.496826,781.285034 779.817322,780.483215 781.799561,779.847778 
	C784.354858,777.966492 786.910156,776.085205 789.947571,773.676575 
	C790.569641,770.958923 791.732727,768.241882 791.735413,765.523621 
	C791.826416,673.345825 791.819580,581.167969 791.734070,488.990204 
	C791.731873,486.639465 790.689392,484.289703 789.831238,481.311737 
	C787.177063,475.466766 782.801819,472.451324 776.227234,472.901672 
	C770.504211,473.293671 764.774414,473.587555 758.567810,473.251312 
	C742.060425,475.864685 725.553040,478.478027 708.253052,481.045685 
	C691.478088,486.573456 674.703064,492.101196 657.236145,497.803101 
	C655.785889,498.512482 654.335693,499.221832 652.974976,499.940033 
	C652.974976,499.940033 652.964722,499.850616 652.239319,499.931976 
	C650.123535,500.934662 648.007812,501.937347 645.976440,502.957642 
	C645.976440,502.957642 645.979004,502.871460 645.364624,502.952515 
	C644.868408,503.277069 644.372253,503.601593 643.975037,503.928070 
	C643.975037,503.928070 643.956421,503.830872 643.275146,503.901367 
	C642.135254,504.566559 640.995361,505.231750 639.956909,505.912506 
	C639.956909,505.912506 639.943420,505.810760 639.206177,505.906525 
	C636.084290,507.553925 632.962463,509.201294 629.937744,510.876740 
	C629.937744,510.876740 629.903809,510.781464 629.185242,510.810913 
	C627.133972,511.894379 625.082703,512.977844 622.340759,514.192688 
	C609.132080,522.035034 595.923462,529.877380 581.934692,538.182922 
	C581.934692,529.853821 581.165222,521.943604 582.098267,514.239563 
	C583.924438,499.161713 592.340088,487.163055 601.792664,475.756073 
	C612.804932,462.466888 620.902832,447.529175 626.104797,430.196686 
	C626.158264,429.665924 626.211792,429.135193 626.190125,428.491577 
	C626.190125,428.491577 626.068115,428.550812 626.787842,428.156830 
	C627.269043,425.458008 627.750305,422.759186 628.152527,419.985321 
	C628.152527,419.985321 628.074402,420.061218 628.791687,419.804657 
	C629.830017,412.876434 630.868347,405.948181 632.053345,398.125031 
	C631.998718,395.408722 631.944092,392.692413 631.979797,389.111053 
	C629.622070,376.754486 627.264404,364.397888 624.901917,351.293945 
	C617.322083,327.575745 601.638794,309.717712 582.602356,294.761078 
	C563.181458,279.502380 539.884766,273.871338 515.886719,271.122986 
	C509.634766,270.407013 502.997223,270.644012 496.840240,271.914276 
	C463.308807,278.832275 435.397675,295.324707 415.518585,323.473999 
	C392.625946,355.890625 388.474396,391.567078 399.640717,429.374390 
	C405.211090,448.234711 415.444153,464.413666 427.818146,479.366455 
	C440.841644,495.104065 447.320038,512.790466 444.759644,533.356018 
	C444.539093,535.127625 444.067871,536.867981 443.862701,537.882996 
	C429.643005,529.457520 415.806427,521.259033 401.401825,512.682800 
	C394.956024,509.728210 388.510223,506.773621 382.062500,503.928619 
	C382.062500,503.928619 382.168549,503.900909 382.211975,503.272491 
	C381.819458,503.137268 381.426941,503.002045 381.029510,502.949280 
	C381.029510,502.949280 381.111023,502.936096 380.671570,502.391449 
	C378.460175,501.540863 376.248779,500.690308 374.023712,499.933075 
	C374.023712,499.933075 374.117828,499.927063 373.690277,499.368011 
	C369.809906,497.850189 365.929535,496.332367 362.020233,494.909454 
	C362.020233,494.909454 362.119171,494.917450 361.710510,494.353821 
	C360.825897,494.069489 359.941254,493.785126 358.510651,493.079071 
	C347.661560,489.749023 336.812500,486.418945 325.244110,482.848541 
	C318.838745,481.587280 312.433350,480.326019 305.618378,478.941132 
	C305.618378,478.941132 305.190643,478.950836 304.713379,478.324463 
	C303.155457,478.244812 301.597565,478.165161 299.355316,477.779175 
	C296.414062,477.538239 293.472778,477.297272 290.276978,476.446075 
	C288.593475,475.948517 286.939636,475.268707 285.220673,474.989105 
	C280.841003,474.276611 276.432281,473.742950 271.230743,472.966583 
	C270.138550,473.010101 269.046356,473.053619 267.028503,472.989319 
	C259.039062,473.368011 251.049637,473.746735 242.446564,474.134491 
	C241.612305,474.689270 240.778061,475.244049 239.374176,475.994385 
	C239.117172,476.297363 238.860168,476.600342 238.241089,477.030945 
	C238.025879,477.203339 237.917374,477.427399 237.424606,477.994415 
	C237.246521,478.318909 237.068451,478.643402 236.970612,478.972046 
	C236.970612,478.972046 236.935379,478.899780 236.397354,479.404999 
	C235.597824,482.413544 234.103470,485.421173 234.099655,488.430725 
	C233.981750,581.110413 233.984055,673.790283 234.134995,766.469849 
	C234.139725,769.367615 235.913498,772.262573 236.835770,775.058655 
	C236.835770,775.058655 236.787094,775.150208 236.952362,775.735413 
	C237.538300,776.254028 238.124222,776.772644 238.717300,777.213135 
	C238.717300,777.213135 238.769592,777.271606 239.023941,777.859192 
	C239.933563,778.350037 240.843185,778.840881 241.732437,779.164124 
	C241.732437,779.164124 241.796982,779.320129 242.064789,779.880066 
	C243.048706,780.215820 244.032623,780.551575 245.842270,781.089783 
	C254.213486,781.334351 262.584686,781.578857 271.879883,782.003540 
	C280.267090,782.635803 288.654327,783.268066 297.855316,784.058411 
	C307.664307,785.604919 317.619629,786.536621 327.250854,788.829773 
	C345.585999,793.195312 363.735962,798.338623 381.980591,803.067932 
	C381.980591,803.067932 381.887817,803.068420 382.348999,803.624268 
	C386.000885,804.854126 389.652740,806.084045 393.697113,807.853149 
	C403.136261,811.888733 412.575409,815.924316 422.551300,820.312683 
	C423.341400,820.600769 424.131500,820.888855 424.956116,821.081970 
	C424.956116,821.081970 424.862579,821.120178 425.261780,821.645874 
	C426.467926,822.156799 427.674072,822.667786 428.984039,823.105042 
	C428.984039,823.105042 428.858429,823.125549 429.268005,823.664551 
	C430.668610,824.251831 432.069214,824.839172 433.601135,825.493103 
	C433.601135,825.493103 433.741211,825.538513 434.077515,826.055115 
	C436.682556,827.423157 439.287598,828.791138 441.986206,830.064819 
	C441.986206,830.064819 441.863312,830.115417 442.265076,830.657104 
	C444.470428,831.828735 446.675781,833.000366 448.983795,834.075623 
	C448.983795,834.075623 448.852600,834.126892 449.213623,834.683472 
	C450.770111,835.512939 452.326630,836.342346 453.985596,837.077026 
	C453.985596,837.077026 453.855133,837.126465 454.216919,837.633545 
	C455.104156,838.146240 455.991425,838.658936 456.985535,839.071350 
	C456.985535,839.071350 456.850861,839.128967 457.180725,839.682678 
	C458.274200,840.258179 459.367676,840.833679 460.579529,841.485718 
	C460.579529,841.485718 460.697113,841.563416 460.979614,842.106201 
	C463.963440,844.107117 466.947296,846.107971 469.985016,848.018982 
	C469.985016,848.018982 469.896790,848.075562 470.260986,848.578369 
	C471.132782,849.110657 472.004578,849.642944 472.977631,850.071350 
	C472.977631,850.071350 472.845215,850.130737 473.126099,850.651489 
	C473.642090,850.895996 474.158051,851.140503 474.709808,851.435791 
	C474.709808,851.435791 474.695862,851.496277 474.980774,852.032776 
	C476.163971,852.812866 477.347168,853.592957 478.597961,854.507446 
	C478.597961,854.507446 478.689392,854.627014 478.959930,855.159546 
	C481.599609,857.161011 484.239258,859.162476 486.986237,861.059143 
	C486.986237,861.059143 486.851501,861.124939 487.214661,861.733459 
	C490.437134,862.865662 493.607452,864.760864 496.891968,864.985413 
	C506.309113,865.629272 515.782043,865.954651 525.214417,865.703552 
	C531.536987,865.535217 538.318787,865.684387 543.001892,860.002686 
	C543.001892,860.002686 543.038269,860.060425 543.593811,859.768555 
	C544.475525,858.921082 545.357239,858.073608 546.165527,857.105408 
	C546.165527,857.105408 546.165161,857.246765 546.672302,857.122009 
	C546.873840,856.874817 547.075378,856.627563 547.434753,856.432556 
	C547.434753,856.432556 547.588989,856.370728 548.162842,856.162476 
	C549.541321,854.887024 550.919739,853.611511 552.283386,852.134277 
	C552.283386,852.134277 552.240356,852.331970 552.886230,852.230774 
	C554.019836,851.342468 555.153442,850.454163 556.429688,849.499695 
	C556.429688,849.499695 556.559631,849.411194 557.111389,849.268188 
	C557.821289,848.623291 558.531189,847.978333 559.297180,847.317627 
	C559.297180,847.317627 559.353699,847.332031 560.006592,847.170715 
	C563.069092,844.946167 566.131531,842.721619 569.220947,840.423218 
	C569.220947,840.423218 569.244141,840.348083 569.837402,840.264282 
	C570.283508,839.897583 570.729614,839.530884 571.072205,839.080566 
	C571.072205,839.080566 571.117371,839.205750 571.638794,839.073425 
	C571.850159,838.812378 572.061462,838.551331 572.252441,838.353760 
	C572.252441,838.353760 572.319031,838.356934 572.974792,838.223816 
	C574.734314,837.008789 576.493835,835.793762 578.328491,834.491943 
	C578.328491,834.491943 578.425781,834.430908 578.976074,834.378662 
	C579.395081,834.044861 579.814087,833.711060 580.321716,833.369019 
	C580.321716,833.369019 580.410278,833.360046 581.066772,833.193848 
	C583.767212,831.515137 586.467651,829.836426 589.078430,828.110657 
	C589.078430,828.110657 589.091492,828.211182 589.691589,828.112366 
	C590.170654,827.775635 590.649719,827.438904 591.042786,827.053711 
	C591.042786,827.053711 591.068542,827.148987 591.596069,827.050659 
M522.740051,235.012985 
	C523.218872,234.383072 523.697693,233.753174 524.069214,233.039368 
	C524.069214,233.039368 524.128601,233.162018 524.746155,232.799301 
	C525.807556,229.030457 527.694031,225.281296 527.784546,221.489288 
	C528.137390,206.699265 528.096130,191.892014 527.787415,177.099808 
	C527.715271,173.644119 526.018433,170.222336 524.911682,166.287262 
	C524.406677,165.822433 523.901672,165.357590 523.099487,164.370010 
	C522.757935,164.184860 522.416321,163.999710 522.112061,163.903000 
	C522.112061,163.903000 522.179993,163.835205 521.846497,163.252869 
	C520.236755,162.563095 518.627075,161.873337 516.371460,161.005157 
	C515.147034,161.036270 513.881226,160.875977 512.705078,161.130371 
	C506.370789,162.500549 499.926270,163.810028 498.971344,172.993393 
	C499.023621,190.984482 499.075897,208.975555 499.039917,227.647415 
	C499.639282,228.823380 500.238617,229.999359 500.877228,231.081848 
	C500.877228,231.081848 500.776062,231.088394 500.879150,231.685776 
	C501.234100,232.155548 501.589050,232.625305 501.985382,233.016449 
	C501.985382,233.016449 501.906036,233.056412 502.171082,233.698318 
	C507.209656,238.532730 512.443665,239.685455 517.548706,237.333527 
	C517.548706,237.333527 517.789734,237.390060 518.532166,237.282928 
	C519.747620,236.578247 520.963074,235.873550 522.029480,235.179688 
	C522.029480,235.179688 522.174377,235.216278 522.740051,235.012985 
M295.361572,364.018097 
	C288.145660,367.083984 285.181122,372.294281 285.867188,380.704926 
	C286.310608,386.141083 290.384796,390.621155 296.966980,392.107635 
	C304.790497,392.166748 312.614777,392.320496 320.437378,392.261047 
	C330.245789,392.186554 340.052856,391.937164 350.562805,391.756073 
	C357.168976,388.600372 360.644379,383.213348 360.043732,377.060181 
	C359.451080,370.988892 354.919128,365.744141 347.992126,364.007294 
	C330.688934,364.050140 313.385712,364.092987 295.361572,364.018097 
z"/>
<path fill="#8650F1" opacity="1.000000" stroke="none" 
	d="
M750.494080,781.246765 
	C743.109680,782.171265 735.723083,783.079163 728.341553,784.026001 
	C723.488220,784.648682 718.642151,785.327393 713.101868,785.653992 
	C710.437561,785.251038 708.340759,784.698547 706.509827,785.172668 
	C687.832275,790.010193 669.190430,794.987000 650.567871,800.032959 
	C649.281372,800.381531 648.229004,801.594116 647.067810,802.404907 
	C646.961853,802.715454 646.746948,802.897034 645.950806,802.677612 
	C642.285339,803.321411 638.978088,803.957336 635.919373,805.203125 
	C624.973877,809.661072 614.015137,814.112610 603.270691,819.024231 
	C599.337463,820.822266 595.987793,823.896973 592.371948,826.389282 
	C592.371948,826.389282 592.302612,826.379089 592.006531,826.347046 
	C591.496460,826.593018 591.282532,826.870972 591.068542,827.148987 
	C591.068542,827.148987 591.042786,827.053711 590.761597,827.070190 
	C590.017456,827.461548 589.554504,827.836365 589.091492,828.211182 
	C589.091492,828.211182 589.078430,828.110657 588.729614,828.088989 
	C585.503967,829.500244 580.867432,828.283203 580.410278,833.360046 
	C580.410278,833.360046 580.321716,833.369019 579.944946,833.274231 
	C579.187378,833.596558 578.806580,834.013733 578.425781,834.430908 
	C578.425781,834.430908 578.328491,834.491943 577.952698,834.366211 
	C575.824280,835.612610 574.071655,836.984741 572.319031,838.356934 
	C572.319031,838.356934 572.252441,838.353760 571.982056,838.334839 
	C571.513550,838.612549 571.315430,838.909119 571.117310,839.205750 
	C571.117371,839.205750 571.072205,839.080566 570.790649,839.096191 
	C570.087463,839.523865 569.665833,839.935974 569.244141,840.348083 
	C569.244141,840.348083 569.220947,840.423218 568.955933,840.240112 
	C564.890564,841.598999 560.370728,842.217712 559.353699,847.332031 
	C559.353699,847.332031 559.297180,847.317627 558.877319,847.222839 
	C557.824829,847.889099 557.192200,848.650146 556.559570,849.411194 
	C556.559631,849.411194 556.429688,849.499695 556.006104,849.353394 
	C554.468506,850.248718 553.354431,851.290344 552.240356,852.331970 
	C552.240356,852.331970 552.283386,852.134277 551.900513,852.132446 
	C548.774597,852.215759 546.850830,853.060059 547.588989,856.370728 
	C547.588989,856.370728 547.434753,856.432556 547.075928,856.387817 
	C546.533142,856.644348 546.349182,856.945557 546.165161,857.246765 
	C546.165161,857.246765 546.165527,857.105408 545.810791,857.101685 
	C544.650085,858.085449 543.844177,859.072937 543.038269,860.060425 
	C543.038269,860.060425 543.001892,860.002686 542.636169,860.014282 
	C540.223511,860.631226 538.169373,861.213318 536.131592,861.848267 
	C533.980774,862.518372 531.851074,863.802429 529.702393,863.823364 
	C524.788879,863.871338 519.865051,863.369995 514.953491,862.987549 
	C505.756226,862.271362 496.299438,865.304932 487.341339,861.091492 
	C487.211975,861.030579 487.016235,861.110657 486.851501,861.124878 
	C486.851501,861.124939 486.986237,861.059143 486.941833,860.751099 
	C485.062775,857.232422 483.177612,854.092896 478.689392,854.627014 
	C478.689392,854.627014 478.597961,854.507446 478.614197,854.076904 
	C477.318909,852.929688 476.007385,852.213013 474.695862,851.496277 
	C474.695862,851.496277 474.709808,851.435791 474.660278,851.078247 
	C474.022247,850.524109 473.433716,850.327393 472.845215,850.130737 
	C472.845215,850.130737 472.977631,850.071350 472.918427,849.755615 
	C471.871735,848.985046 470.884247,848.530334 469.896790,848.075562 
	C469.896790,848.075562 469.985016,848.018982 469.946899,847.707153 
	C466.838226,845.451294 463.767639,843.507385 460.697083,841.563477 
	C460.697113,841.563416 460.579529,841.485718 460.653839,841.059448 
	C459.435730,840.131714 458.143311,839.630310 456.850891,839.128906 
	C456.850861,839.128967 456.985535,839.071350 456.921570,838.751587 
	C455.856781,837.996704 454.855957,837.561584 453.855133,837.126465 
	C453.855133,837.126465 453.985596,837.077026 453.924072,836.755432 
	C452.192596,835.664856 450.522583,834.895874 448.852600,834.126953 
	C448.852600,834.126892 448.983795,834.075623 448.925354,833.759033 
	C446.532379,832.333435 444.197845,831.224426 441.863312,830.115417 
	C441.863312,830.115417 441.986206,830.064819 441.929443,829.751953 
	C439.162201,828.138916 436.451691,826.838745 433.741211,825.538513 
	C433.741211,825.538513 433.601135,825.493103 433.662476,825.059448 
	C432.102051,824.125732 430.480225,823.625671 428.858398,823.125610 
	C428.858429,823.125549 428.984039,823.105042 428.912720,822.759399 
	C427.515106,821.982544 426.188843,821.551392 424.862579,821.120178 
	C424.862579,821.120178 424.956116,821.081970 424.852295,820.830322 
	C423.837158,820.372375 422.925842,820.166138 422.014526,819.959839 
	C412.575409,815.924316 403.136261,811.888733 393.296661,807.238892 
	C389.226746,805.439209 385.557281,804.253784 381.887817,803.068359 
	C381.887817,803.068420 381.980591,803.067932 381.855225,802.762329 
	C381.224792,802.039307 380.785156,801.427917 380.205292,801.232361 
	C357.079803,793.434326 333.470581,787.547607 309.305145,784.154358 
	C305.363892,783.600952 301.164032,780.418823 297.041534,783.900269 
	C288.654327,783.268066 280.267090,782.635803 271.325317,781.529053 
	C269.259613,780.703857 267.753296,780.076294 266.236450,780.049744 
	C259.154510,779.925903 252.069672,779.968018 244.758667,779.686279 
	C243.619965,779.387878 242.708466,779.354004 241.796982,779.320129 
	C241.796982,779.320129 241.732437,779.164124 241.716904,778.887207 
	C240.724121,778.164001 239.746857,777.717773 238.769592,777.271606 
	C238.769592,777.271606 238.717300,777.213135 238.778793,776.889160 
	C238.155884,776.093506 237.471481,775.621826 236.787094,775.150208 
	C236.787094,775.150208 236.835770,775.058655 236.892517,774.672974 
	C236.633652,771.002136 236.046753,767.717224 236.043045,764.431641 
	C235.985138,712.991455 235.882477,661.550842 236.039139,610.111084 
	C236.172333,566.373474 236.624405,522.636841 236.935379,478.899780 
	C236.935379,478.899780 236.970612,478.972046 237.193237,478.846863 
	C237.582443,478.382141 237.749023,478.042633 237.915588,477.703094 
	C237.917374,477.427399 238.025879,477.203339 238.725769,476.894043 
	C239.454910,476.437683 239.699356,476.118256 239.943802,475.798828 
	C240.778061,475.244049 241.612305,474.689270 243.007416,474.399719 
	C248.646011,474.450867 253.727478,474.299561 258.800140,473.999329 
	C261.858551,473.818298 264.903290,473.405701 267.954163,473.097168 
	C269.046356,473.053619 270.138550,473.010101 271.709717,473.424683 
	C278.302979,474.940643 284.417267,475.998474 290.531525,477.056305 
	C293.472778,477.297272 296.414062,477.538239 299.955322,478.213623 
	C302.100464,478.748993 303.645538,478.849915 305.190643,478.950836 
	C305.190643,478.950836 305.618378,478.941132 306.039124,479.298401 
	C311.156250,480.799500 315.830048,482.052887 320.560913,483.029694 
	C322.291992,483.387146 324.158630,483.088318 325.963409,483.088867 
	C336.812500,486.418945 347.661560,489.749023 358.909180,493.648926 
	C360.244873,494.451660 361.182037,494.684540 362.119171,494.917450 
	C362.119171,494.917450 362.020233,494.909454 362.141724,495.212646 
	C366.214752,496.986267 370.166290,498.456665 374.117828,499.927063 
	C374.117828,499.927063 374.023712,499.933075 374.147522,500.235535 
	C376.551208,501.337341 378.831116,502.136719 381.111023,502.936096 
	C381.111023,502.936096 381.029510,502.949280 381.127350,503.168030 
	C381.539642,503.558197 381.854095,503.729553 382.168518,503.900940 
	C382.168549,503.900909 382.062500,503.928619 382.218323,504.188416 
	C388.058289,507.364471 393.723938,510.318085 399.451477,513.146362 
	C400.114990,513.473999 401.122070,513.106018 401.969849,513.060547 
	C415.806427,521.259033 429.643005,529.457520 443.862701,537.882996 
	C444.067871,536.867981 444.539093,535.127625 444.759644,533.356018 
	C447.320038,512.790466 440.841644,495.104065 427.818146,479.366455 
	C415.444153,464.413666 405.211090,448.234711 399.640717,429.374390 
	C388.474396,391.567078 392.625946,355.890625 415.518585,323.473999 
	C435.397675,295.324707 463.308807,278.832275 496.840240,271.914276 
	C502.997223,270.644012 509.634766,270.407013 515.886719,271.122986 
	C539.884766,273.871338 563.181458,279.502380 582.602356,294.761078 
	C601.638794,309.717712 617.322083,327.575745 624.627380,351.903687 
	C624.253845,353.159607 623.974487,353.837799 624.082520,354.447327 
	C626.036865,365.476746 628.005920,376.503967 630.088318,387.509613 
	C630.259277,388.413025 631.269348,389.157684 631.889526,389.976105 
	C631.944092,392.692413 631.998718,395.408722 631.599426,398.648895 
	C630.121826,406.135590 629.098145,413.098389 628.074402,420.061218 
	C628.074402,420.061218 628.152527,419.985321 627.846436,420.213745 
	C627.049561,423.145081 626.558838,425.847931 626.068115,428.550812 
	C626.068115,428.550812 626.190125,428.491577 625.991089,428.754822 
	C625.830872,429.667480 625.869751,430.316864 625.908630,430.966278 
	C620.902832,447.529175 612.804932,462.466888 601.792664,475.756073 
	C592.340088,487.163055 583.924438,499.161713 582.098267,514.239563 
	C581.165222,521.943604 581.934692,529.853821 581.934692,538.182922 
	C595.923462,529.877380 609.132080,522.035034 622.877930,514.377380 
	C625.578064,513.301880 627.740906,512.041687 629.903809,510.781464 
	C629.903809,510.781464 629.937744,510.876740 630.276489,510.916290 
	C633.724609,509.240814 636.833984,507.525787 639.943420,505.810730 
	C639.943420,505.810760 639.956909,505.912506 640.275513,505.941406 
	C641.714905,505.257172 642.835632,504.544006 643.956421,503.830872 
	C643.956421,503.830872 643.975037,503.928070 644.250366,503.925293 
	C645.010071,503.572144 645.494568,503.221802 645.979004,502.871460 
	C645.979004,502.871460 645.976440,502.957642 646.326660,502.965759 
	C648.772827,501.932770 650.868774,500.891663 652.964722,499.850586 
	C652.964722,499.850616 652.974976,499.940033 653.326050,499.956573 
	C655.094055,499.191711 656.511108,498.410309 657.928101,497.628906 
	C674.703064,492.101196 691.478088,486.573456 708.893188,481.350098 
	C710.179443,481.743286 710.852722,481.997406 711.467529,481.896301 
	C723.495911,479.917786 735.517944,477.900787 747.540161,475.884918 
	C751.377625,475.241455 755.211853,474.578705 759.047607,473.924805 
	C764.774414,473.587555 770.504211,473.293671 776.227234,472.901672 
	C782.801819,472.451324 787.177063,475.466766 789.662842,481.909027 
	C789.329590,484.475586 789.021240,486.444824 789.020691,488.414124 
	C788.996765,574.905212 789.022522,661.396362 788.963135,747.887451 
	C788.957520,756.013184 788.404968,764.137817 788.213135,772.265503 
	C788.198120,772.901428 789.028198,773.557251 789.465454,774.203857 
	C786.910156,776.085205 784.354858,777.966492 780.994995,779.920410 
	C771.985718,780.001465 763.779907,779.942139 755.577148,780.073669 
	C753.876953,780.100952 752.188110,780.837219 750.494080,781.246765 
M570.750122,320.646362 
	C570.436035,320.468811 570.122009,320.291290 569.930420,320.104523 
	C569.930420,320.104523 569.901855,320.224030 569.664490,319.614258 
	C569.061890,319.439301 568.459229,319.264343 567.944641,319.092743 
	C567.944641,319.092743 567.907837,319.172791 567.888916,318.431885 
	C566.884033,317.979248 565.879089,317.526642 564.956360,317.046326 
	C564.956360,317.046326 564.964722,317.132629 564.775146,316.613647 
	C564.467896,316.426788 564.160583,316.239960 563.976990,316.059326 
	C563.976990,316.059326 563.953674,316.180939 563.694946,315.587097 
	C563.095459,315.408936 562.495972,315.230743 561.975952,315.032806 
	C561.975952,315.032806 561.949524,315.110321 561.900513,314.382812 
	C560.233337,313.606110 558.566101,312.829407 556.974304,312.031769 
	C556.974304,312.031769 556.982727,312.109558 556.689758,311.549164 
	C556.095947,311.380310 555.502136,311.211456 554.981567,311.016876 
	C554.981567,311.016876 554.959534,311.091278 554.886414,310.342651 
	C553.558655,309.911591 552.230957,309.480530 550.978210,309.032074 
	C550.978210,309.032074 550.980469,309.109039 550.696350,308.536591 
	C550.092834,308.378967 549.489258,308.221313 548.979248,308.062714 
	C548.979248,308.062714 548.962463,308.154755 548.734375,307.463715 
	C547.441162,307.033020 546.147949,306.602356 544.885498,306.087067 
	C544.885498,306.087067 544.938782,306.159668 544.621460,305.512268 
	C543.360413,304.725128 542.177917,303.443024 540.825989,303.228546 
	C529.106384,301.369202 517.398987,298.888885 505.600067,298.270844 
	C498.083984,297.877106 490.316681,300.022247 484.024139,305.071655 
	C484.024139,305.071655 484.119476,305.076050 483.394928,305.037018 
	C482.621460,305.431915 481.847992,305.826782 481.042542,306.123383 
	C481.042542,306.123383 481.138702,306.161255 480.406494,306.049011 
	C479.304626,306.771698 478.202759,307.494354 477.054321,308.109497 
	C477.054321,308.109497 477.159027,308.162201 476.370850,308.041931 
	C474.929077,309.060547 473.487305,310.079132 472.018158,311.023682 
	C472.018158,311.023682 472.094635,311.043518 471.395447,311.090576 
	C470.841187,311.481659 470.286926,311.872711 469.434113,312.829315 
	C456.767151,320.394714 446.153320,330.234589 436.458099,342.033234 
	C435.998138,343.062469 435.538208,344.091705 435.099762,345.039520 
	C435.099762,345.039520 435.167511,345.089539 434.426788,345.087341 
	C433.646881,346.769012 432.867004,348.450684 432.062347,350.034515 
	C432.062347,350.034515 432.163239,350.031647 431.574646,350.301727 
	C431.403839,350.905853 431.233032,351.510010 431.051971,352.030487 
	C431.051971,352.030487 431.135864,352.038666 430.612518,352.219452 
	C430.442169,352.534180 430.271790,352.848938 430.055115,353.079132 
	C430.055115,353.079132 430.148987,353.057129 429.512177,353.383575 
	C428.694489,355.957733 427.876770,358.531891 427.056213,361.023529 
	C427.056213,361.023529 427.130554,361.059418 426.375732,361.115692 
	C425.996277,361.413574 425.393585,361.638733 425.269409,362.019806 
	C419.303253,380.331390 417.706757,398.863800 423.430145,417.494171 
	C424.976868,422.528992 427.885742,427.145325 430.075226,431.971558 
	C430.075226,431.971558 430.079590,431.875793 430.039032,432.634216 
	C431.045410,434.094971 432.051758,435.555756 433.204773,437.223358 
	C433.204773,437.223358 433.038055,437.414429 433.194214,438.074036 
	C433.507782,438.376495 433.821320,438.678955 434.040955,438.949585 
	C434.040955,438.949585 434.088959,438.862793 434.033722,439.628326 
	C434.767273,440.451233 435.500854,441.274109 436.791443,442.438202 
	C444.163513,452.968842 451.535553,463.499451 458.565399,474.238037 
	C458.770966,474.466339 458.976562,474.694672 459.093781,474.951904 
	C459.093781,474.951904 459.094116,474.858917 459.030731,475.634644 
	C460.750183,479.063751 462.469666,482.492828 464.053680,485.938141 
	C464.053680,485.938141 464.168671,485.864685 464.050995,486.649261 
	C464.156128,487.299530 464.140594,487.999390 464.384247,488.592773 
	C469.348755,500.682312 472.608673,513.103333 472.060669,526.325073 
	C472.011078,527.521729 472.702301,528.749146 473.193237,530.764160 
	C474.014160,531.171875 474.834167,531.933594 475.656189,531.935791 
	C500.358856,532.002563 525.061829,532.020935 549.764160,531.906677 
	C550.818726,531.901794 551.867188,530.561829 552.961609,529.950378 
	C552.961609,529.950378 552.849670,529.976501 553.502136,529.545776 
	C554.342712,522.888733 555.258301,516.239929 555.985046,509.570496 
	C556.255920,507.084534 556.085144,504.550415 556.117920,501.282104 
	C560.642273,483.674957 570.522339,468.975555 581.467102,454.893341 
	C594.007568,438.757996 602.898560,421.168427 603.917725,400.318817 
	C605.072754,376.689301 599.598816,355.000702 585.549866,335.606506 
	C584.636719,334.777618 583.723511,333.948700 582.893127,333.036957 
	C582.893127,333.036957 582.965942,333.128601 582.732483,332.596161 
	C582.397644,332.418121 582.062744,332.240112 581.160767,331.749054 
	C578.086426,328.589447 575.012085,325.429810 571.776001,321.717773 
	C571.475830,321.497253 571.175659,321.276733 570.965942,321.105652 
	C570.965942,321.105652 570.902161,321.186676 570.750122,320.646362 
M477.029968,597.973572 
	C477.029968,597.973572 477.018158,597.895203 477.431549,598.494568 
	C479.943054,598.687317 482.454590,598.880066 485.891815,598.934875 
	C490.276550,598.990662 494.661255,599.046509 499.451721,599.608765 
	C500.619110,599.440002 501.786469,599.271240 503.885956,598.947632 
	C517.596497,598.978149 531.307068,599.008667 545.427063,599.593079 
	C546.431641,599.287781 547.436157,598.982544 548.794189,598.130493 
	C557.486389,595.409119 564.028198,589.897095 565.974731,581.054993 
	C567.468628,574.269104 566.808472,567.009094 567.428772,559.730835 
	C567.205383,559.504395 566.981995,559.277954 565.930664,559.079834 
	C564.275024,559.019836 562.619446,558.959900 560.811707,558.569458 
	C560.552917,558.680664 560.294189,558.791931 559.111816,559.057739 
	C554.726379,559.007080 550.340942,558.956421 545.367249,558.324585 
	C532.822754,558.224915 520.278320,558.113525 507.733612,558.063538 
	C507.170807,558.061401 506.605743,558.616028 505.116974,559.063232 
	C500.730072,559.011108 496.343201,558.958923 491.371826,558.325073 
	C486.262817,558.518127 481.153778,558.711243 475.279816,559.056763 
	C474.505035,559.005981 473.730286,558.955261 472.389526,558.335205 
	C468.946228,558.513611 465.502899,558.692017 461.361755,559.272461 
	C457.379730,573.876038 460.297821,588.174805 475.249817,597.086548 
	C475.863892,597.365723 476.477966,597.644958 477.029968,597.973572 
M499.336090,627.609802 
	C499.231812,628.093628 499.036316,628.577393 499.036224,629.061218 
	C499.022003,697.435791 499.013458,765.810425 499.086029,834.184937 
	C499.087372,835.453552 500.059448,836.721069 500.932861,838.519653 
	C503.202454,844.261475 508.090027,847.385986 513.577271,847.685120 
	C520.253113,848.049072 523.988159,843.091309 526.071960,837.057373 
	C526.224243,836.616272 526.595093,836.250671 527.416809,836.136475 
	C527.605103,835.728638 527.958252,835.320862 527.958374,834.913025 
	C527.980042,766.545715 527.984924,698.178345 527.908813,629.811096 
	C527.907349,628.539185 526.932678,627.268250 526.268677,626.180359 
	C526.268677,626.180359 526.063171,626.070618 525.504333,625.425842 
	C517.637756,625.304565 509.771271,625.152527 501.904327,625.120789 
	C501.278503,625.118225 500.649323,625.947693 500.123779,626.733398 
	C500.123779,626.733398 499.938019,627.039185 499.336090,627.609802 
z"/>
<path fill="#8650F2" opacity="1.000000" stroke="none" 
	d="
M350.821045,240.862915 
	C344.832794,235.024078 344.220856,228.431610 349.104218,222.367096 
	C354.479095,215.692139 363.259644,214.465897 370.697174,219.814224 
	C371.148865,220.513062 371.606781,220.748337 372.064728,220.983612 
	C375.966339,224.727600 379.867950,228.471573 384.011169,232.778595 
	C384.562683,233.548309 384.872620,233.754990 385.182587,233.961670 
	C392.715973,241.390503 400.249390,248.819366 407.895630,256.921295 
	C408.750122,258.694824 409.491760,259.795288 410.233398,260.895752 
	C410.233398,260.895752 410.159882,260.950226 410.121338,261.262634 
	C410.481537,262.123566 410.880310,262.672089 411.279053,263.220612 
	C413.200836,270.313080 411.567108,275.834137 406.496185,279.383881 
	C400.605927,283.507172 394.604034,282.980560 387.116852,277.165527 
	C386.480103,276.424255 386.156067,276.228424 385.832001,276.032562 
	C383.627014,273.962769 381.422028,271.892975 378.996857,269.255615 
	C378.478546,268.465515 378.180420,268.242981 377.882294,268.020447 
	C377.882294,268.020447 377.984375,268.022247 377.880402,267.817017 
	C377.476532,267.417480 377.176666,267.223175 376.876770,267.028870 
	C376.876770,267.028870 376.980042,267.030518 376.882324,266.819519 
	C376.479248,266.417694 376.173859,266.226868 375.868500,266.036072 
	C375.868500,266.036072 375.963715,266.010895 375.850861,265.792358 
	C375.394165,265.402679 375.050323,265.231537 374.706482,265.060425 
	C372.872192,263.321259 371.037933,261.582092 368.991150,259.273804 
	C368.478668,258.476654 368.178772,258.248627 367.878845,258.020569 
	C367.878845,258.020569 367.980377,258.010529 367.861664,257.801514 
	C367.414703,257.411163 367.086456,257.229858 366.758209,257.048553 
	C365.567505,255.967407 364.376801,254.886276 362.981598,253.249817 
	C362.478424,252.469940 362.179718,252.245377 361.881042,252.020813 
	C361.881042,252.020813 361.984375,252.023346 361.880585,251.817810 
	C361.475952,251.418488 361.175140,251.224670 360.874298,251.030869 
	C360.874298,251.030869 360.968201,251.069427 360.944122,250.760315 
	C360.227722,249.996475 359.535400,249.541763 358.843079,249.087036 
	C358.843079,249.087036 358.924866,249.022644 358.831146,248.800446 
	C358.395599,248.405304 358.053772,248.232361 357.711945,248.059418 
	C357.409210,248.064117 357.182434,247.935181 356.884613,247.184509 
	C356.400391,246.481888 356.063232,246.267395 355.726044,246.052902 
	C354.875702,245.291687 354.025360,244.530472 352.977325,243.227966 
	C352.478119,242.466232 352.176666,242.245773 351.875183,242.025314 
	C351.875183,242.025314 351.971680,242.010315 351.862122,241.788437 
	C351.442047,241.332016 351.131561,241.097458 350.821045,240.862915 
z"/>
<path fill="#8650F2" opacity="1.000000" stroke="none" 
	d="
M642.927124,232.667572 
	C644.976074,230.513214 647.025024,228.358810 649.652954,225.991394 
	C650.476562,225.475113 650.721191,225.171860 650.965820,224.868591 
	C650.965820,224.868591 650.953552,224.975998 651.164917,224.871765 
	C651.566162,224.459885 651.756042,224.152237 651.945923,223.844574 
	C651.945923,223.844559 651.982117,223.946732 652.200684,223.829010 
	C652.587769,223.355438 652.756348,222.999573 652.924866,222.643723 
	C652.919189,222.357941 653.041565,222.146057 653.780029,221.872482 
	C654.491577,221.393829 654.715027,221.050797 654.938538,220.707764 
	C660.937012,214.675552 668.421326,214.393906 674.874268,219.957550 
	C680.849609,225.109436 682.128296,233.446548 677.044617,239.402008 
	C671.231018,246.212555 664.779419,252.486252 658.493164,258.883209 
	C652.316223,265.168945 646.175598,271.508453 639.696411,277.474030 
	C632.414612,284.178650 623.995056,283.670959 617.384399,276.170227 
	C617.229248,275.520416 617.011353,275.310791 616.793518,275.101196 
	C616.793518,275.101196 616.883972,275.064636 616.910828,274.780884 
	C616.570679,274.007568 616.203735,273.518036 615.836731,273.028503 
	C615.836731,273.028503 615.934631,273.018433 615.957336,272.607697 
	C616.291748,268.089844 616.603455,263.982758 616.915161,259.875641 
	C616.915161,259.875641 616.923828,259.964447 617.147705,259.872528 
	C617.550293,259.466431 617.728943,259.152252 617.907593,258.838043 
	C617.907593,258.838043 617.917236,258.946533 618.167358,258.805725 
	C618.596863,258.054169 618.776245,257.443390 618.955566,256.832611 
	C618.970581,256.512604 619.112244,256.265106 619.868164,255.911621 
	C620.550171,255.394760 620.744507,255.056366 620.938904,254.717987 
	C620.934753,254.420242 621.059448,254.193253 621.807251,253.881805 
	C622.510925,253.372177 622.720337,253.017746 622.929688,252.663300 
	C622.919861,252.378601 623.036865,252.162628 623.773010,251.874634 
	C624.487671,251.383194 624.710022,251.032486 624.932312,250.681793 
	C626.989624,248.523727 629.046936,246.365662 631.678223,243.991211 
	C632.491394,243.474808 632.730530,243.174789 632.969727,242.874756 
	C632.969727,242.874756 632.970398,242.978546 633.191040,242.852753 
	C633.583923,242.378754 633.756165,242.030533 633.928406,241.682327 
	C634.349792,241.157730 634.771179,240.633118 635.722534,239.943054 
	C636.490601,239.473450 636.728577,239.169312 636.966553,238.865189 
	C636.966614,238.865204 636.980042,238.969101 637.195312,238.846909 
	C637.584167,238.381119 637.757812,238.037521 637.931458,237.693909 
	C637.924377,237.404022 638.042969,237.180832 638.767212,236.900940 
	C639.486328,236.474792 639.725464,236.172028 639.964539,235.869263 
	C639.964539,235.869263 639.952454,235.975296 640.165527,235.872345 
	C640.568726,235.461304 640.758911,235.153198 640.949097,234.845093 
	C640.949097,234.845093 640.971191,234.953201 641.173828,234.858185 
	C641.568604,234.460464 641.760803,234.157791 641.953003,233.855103 
	C641.953003,233.855103 641.974976,233.960144 642.193359,233.839905 
	C642.583496,233.368958 642.755310,233.018265 642.927124,232.667572 
z"/>
<path fill="#8650F1" opacity="1.000000" stroke="none" 
	d="
M523.396667,164.892746 
	C523.901672,165.357590 524.406677,165.822433 524.965210,166.979645 
	C525.342285,169.961212 526.027466,172.265457 525.932739,174.537201 
	C525.118286,194.072845 528.032227,213.725433 524.128601,233.162018 
	C524.128601,233.162018 524.069214,233.039368 523.766724,233.075104 
	C523.034302,233.812668 522.604370,234.514481 522.174377,235.216278 
	C522.174377,235.216278 522.029480,235.179688 521.717834,235.116791 
	C520.200745,235.832626 518.995239,236.611359 517.789734,237.390076 
	C517.789734,237.390060 517.548706,237.333527 517.146179,237.168030 
	C512.122253,235.675247 507.502350,234.342575 502.875854,233.033157 
	C502.578583,232.949005 502.230499,233.044495 501.906036,233.056412 
	C501.906036,233.056412 501.985382,233.016449 501.957947,232.731018 
	C501.545685,231.993195 501.160858,231.540802 500.776062,231.088394 
	C500.776062,231.088394 500.877228,231.081848 500.915955,230.747574 
	C500.636963,229.275726 500.319275,228.138168 499.995361,226.531952 
	C499.980835,209.808609 499.997528,193.553802 499.927887,177.299377 
	C499.920410,175.557236 499.409821,173.817276 499.132629,172.076309 
	C499.926270,163.810028 506.370789,162.500549 512.705078,161.130371 
	C513.881226,160.875977 515.147034,161.036270 516.745117,161.452591 
	C518.805786,162.545074 520.492920,163.190140 522.179993,163.835205 
	C522.179993,163.835205 522.112061,163.903000 522.209229,164.145477 
	C522.669861,164.556213 523.033264,164.724472 523.396667,164.892746 
z"/>
<path fill="#8650F2" opacity="1.000000" stroke="none" 
	d="
M296.054565,391.907166 
	C290.384796,390.621155 286.310608,386.141083 285.867188,380.704926 
	C285.181122,372.294281 288.145660,367.083984 296.020508,364.356323 
	C313.507080,364.782959 330.334625,364.879364 347.162354,364.926117 
	C347.742432,364.927734 348.323883,364.432739 348.904694,364.169220 
	C354.919128,365.744141 359.451080,370.988892 360.043732,377.060181 
	C360.644379,383.213348 357.168976,388.600372 349.893188,391.515564 
	C332.240631,391.194733 315.257690,391.103271 298.274628,391.071503 
	C297.535126,391.070129 296.794617,391.616150 296.054565,391.907166 
z"/>
<path fill="#8650F1" opacity="1.000000" stroke="none" 
	d="
M734.014893,389.927185 
	C734.014893,389.927185 733.597229,390.053284 733.056763,390.056580 
	C732.011353,390.404388 731.506531,390.748901 731.001648,391.093445 
	C731.001648,391.093445 730.999390,391.022156 730.560303,391.035156 
	C713.700256,391.045502 697.279236,391.021759 680.858521,391.074005 
	C679.273071,391.079071 677.689026,391.555573 676.104370,391.813232 
	C669.771606,390.046844 666.546326,385.467499 666.041016,379.316040 
	C665.458801,372.228455 668.762207,367.003418 676.039185,364.385681 
	C694.126160,364.798187 711.558899,364.894592 729.351196,365.037201 
	C731.545410,365.649689 733.380005,366.216003 735.214600,366.782318 
	C735.214600,366.782318 735.180786,366.878448 735.213135,367.122070 
	C735.556641,367.542633 735.867798,367.719543 736.178894,367.896454 
	C736.178894,367.896454 736.103821,367.946686 736.173462,368.165558 
	C736.545898,368.575012 736.848633,368.765564 737.151367,368.956116 
	C737.151367,368.956146 737.047241,368.937561 737.070435,369.311157 
	C737.749268,374.199707 738.405029,378.714630 739.060791,383.229553 
	C739.060791,383.229553 739.070984,383.637939 738.775696,383.940399 
	C738.336914,384.543121 738.193359,384.843384 738.049866,385.143646 
	C738.049866,385.143646 738.057190,385.025116 737.784668,385.127625 
	C736.346375,386.795807 735.180603,388.361481 734.014893,389.927185 
z"/>
<path fill="#8B53F3" opacity="1.000000" stroke="none" 
	d="
M789.706543,773.940186 
	C789.028198,773.557251 788.198120,772.901428 788.213135,772.265503 
	C788.404968,764.137817 788.957520,756.013184 788.963135,747.887451 
	C789.022522,661.396362 788.996765,574.905212 789.020691,488.414124 
	C789.021240,486.444824 789.329590,484.475586 789.813232,482.222900 
	C790.689392,484.289703 791.731873,486.639465 791.734070,488.990204 
	C791.819580,581.167969 791.826416,673.345825 791.735413,765.523621 
	C791.732727,768.241882 790.569641,770.958923 789.706543,773.940186 
z"/>
<path fill="#7E41F0" opacity="1.000000" stroke="none" 
	d="
M236.666367,479.152405 
	C236.624405,522.636841 236.172333,566.373474 236.039139,610.111084 
	C235.882477,661.550842 235.985138,712.991455 236.043045,764.431641 
	C236.046753,767.717224 236.633652,771.002136 236.905899,774.723083 
	C235.913498,772.262573 234.139725,769.367615 234.134995,766.469849 
	C233.984055,673.790283 233.981750,581.110413 234.099655,488.430725 
	C234.103470,485.421173 235.597824,482.413544 236.666367,479.152405 
z"/>
<path fill="#7431F1" opacity="1.000000" stroke="none" 
	d="
M297.448425,783.979370 
	C301.164032,780.418823 305.363892,783.600952 309.305145,784.154358 
	C333.470581,787.547607 357.079803,793.434326 380.205292,801.232361 
	C380.785156,801.427917 381.224792,802.039307 381.846313,802.807861 
	C363.735962,798.338623 345.585999,793.195312 327.250854,788.829773 
	C317.619629,786.536621 307.664307,785.604919 297.448425,783.979370 
z"/>
<path fill="#8650F2" opacity="1.000000" stroke="none" 
	d="
M487.033081,861.429199 
	C487.016235,861.110657 487.211975,861.030579 487.341339,861.091492 
	C496.299438,865.304932 505.756226,862.271362 514.953491,862.987549 
	C519.865051,863.369995 524.788879,863.871338 529.702393,863.823364 
	C531.851074,863.802429 533.980774,862.518372 536.131592,861.848267 
	C538.169373,861.213318 540.223511,860.631226 542.665283,860.031982 
	C538.318787,865.684387 531.536987,865.535217 525.214417,865.703552 
	C515.782043,865.954651 506.309113,865.629272 496.891968,864.985413 
	C493.607452,864.760864 490.437134,862.865662 487.033081,861.429199 
z"/>
<path fill="#7E41F0" opacity="1.000000" stroke="none" 
	d="
M524.437378,232.980652 
	C528.032227,213.725433 525.118286,194.072845 525.932739,174.537201 
	C526.027466,172.265457 525.342285,169.961212 525.043884,167.228485 
	C526.018433,170.222336 527.715271,173.644119 527.787415,177.099808 
	C528.096130,191.892014 528.137390,206.699265 527.784546,221.489288 
	C527.694031,225.281296 525.807556,229.030457 524.437378,232.980652 
z"/>
<path fill="#8650F2" opacity="1.000000" stroke="none" 
	d="
M592.718506,826.335876 
	C595.987793,823.896973 599.337463,820.822266 603.270691,819.024231 
	C614.015137,814.112610 624.973877,809.661072 635.919373,805.203125 
	C638.978088,803.957336 642.285339,803.321411 645.730652,802.670654 
	C628.343506,810.717957 610.704224,818.500244 592.718506,826.335876 
z"/>
<path fill="#7431F1" opacity="1.000000" stroke="none" 
	d="
M647.455872,802.307617 
	C648.229004,801.594116 649.281372,800.381531 650.567871,800.032959 
	C669.190430,794.987000 687.832275,790.010193 706.509827,785.172668 
	C708.340759,784.698547 710.437561,785.251038 712.683716,785.615784 
	C691.252258,791.339844 669.548096,796.775085 647.455872,802.307617 
z"/>
<path fill="#5F11F1" opacity="1.000000" stroke="none" 
	d="
M676.506775,391.909119 
	C677.689026,391.555573 679.273071,391.079071 680.858521,391.074005 
	C697.279236,391.021759 713.700256,391.045502 730.593628,391.047638 
	C729.914917,391.480347 728.763062,392.292114 727.612671,392.289978 
	C710.711365,392.258698 693.810303,392.118988 676.506775,391.909119 
z"/>
<path fill="#6F28F1" opacity="1.000000" stroke="none" 
	d="
M758.807739,473.588043 
	C755.211853,474.578705 751.377625,475.241455 747.540161,475.884918 
	C735.517944,477.900787 723.495911,479.917786 711.467529,481.896301 
	C710.852722,481.997406 710.179443,481.743286 709.289551,481.372986 
	C725.553040,478.478027 742.060425,475.864685 758.807739,473.588043 
z"/>
<path fill="#7431F1" opacity="1.000000" stroke="none" 
	d="
M631.934692,389.543579 
	C631.269348,389.157684 630.259277,388.413025 630.088318,387.509613 
	C628.005920,376.503967 626.036865,365.476746 624.082520,354.447327 
	C623.974487,353.837799 624.253845,353.159607 624.629761,352.277344 
	C627.264404,364.397888 629.622070,376.754486 631.934692,389.543579 
z"/>
<path fill="#5F11F1" opacity="1.000000" stroke="none" 
	d="
M499.052002,172.534851 
	C499.409821,173.817276 499.920410,175.557236 499.927887,177.299377 
	C499.997528,193.553802 499.980835,209.808609 499.776764,226.529678 
	C499.564362,226.996063 499.128174,226.966644 499.128174,226.966644 
	C499.075897,208.975555 499.023621,190.984482 499.052002,172.534851 
z"/>
<path fill="#5F11F1" opacity="1.000000" stroke="none" 
	d="
M296.510773,392.007385 
	C296.794617,391.616150 297.535126,391.070129 298.274628,391.071503 
	C315.257690,391.103271 332.240631,391.194733 349.542053,391.519165 
	C340.052856,391.937164 330.245789,392.186554 320.437378,392.261047 
	C312.614777,392.320496 304.790497,392.166748 296.510773,392.007385 
z"/>
<path fill="#5F11F1" opacity="1.000000" stroke="none" 
	d="
M348.448425,364.088257 
	C348.323883,364.432739 347.742432,364.927734 347.162354,364.926117 
	C330.334625,364.879364 313.507080,364.782959 296.380981,364.415161 
	C313.385712,364.092987 330.688934,364.050140 348.448425,364.088257 
z"/>
<path fill="#5F11F1" opacity="1.000000" stroke="none" 
	d="
M728.991577,364.991028 
	C711.558899,364.894592 694.126160,364.798187 676.393799,364.425415 
	C693.417419,364.069611 710.740723,363.990173 728.536011,364.222961 
	C729.007874,364.535217 728.991577,364.990997 728.991577,364.991028 
z"/>
<path fill="#6F28F1" opacity="1.000000" stroke="none" 
	d="
M244.985870,779.950806 
	C252.069672,779.968018 259.154510,779.925903 266.236450,780.049744 
	C267.753296,780.076294 269.259613,780.703857 270.863342,781.438965 
	C262.584686,781.578857 254.213486,781.334351 245.417847,780.754517 
	C244.993439,780.419312 244.985870,779.950806 244.985870,779.950806 
z"/>
<path fill="#6F28F1" opacity="1.000000" stroke="none" 
	d="
M750.901001,781.499634 
	C752.188110,780.837219 753.876953,780.100952 755.577148,780.073669 
	C763.779907,779.942139 771.985718,780.001465 780.668945,780.014160 
	C779.817322,780.483215 778.496826,781.285034 777.155396,781.321838 
	C768.542175,781.558838 759.924255,781.628052 750.901001,781.499634 
z"/>
<path fill="#7431F1" opacity="1.000000" stroke="none" 
	d="
M401.685852,512.871704 
	C401.122070,513.106018 400.114990,513.473999 399.451477,513.146362 
	C393.723938,510.318085 388.058289,507.364471 382.219299,504.133606 
	C388.510223,506.773621 394.956024,509.728210 401.685852,512.871704 
z"/>
<path fill="#7431F1" opacity="1.000000" stroke="none" 
	d="
M628.433044,419.932922 
	C629.098145,413.098389 630.121826,406.135590 631.526123,399.096375 
	C630.868347,405.948181 629.830017,412.876434 628.433044,419.932922 
z"/>
<path fill="#7431F1" opacity="1.000000" stroke="none" 
	d="
M325.603760,482.968689 
	C324.158630,483.088318 322.291992,483.387146 320.560913,483.029694 
	C315.830048,482.052887 311.156250,480.799500 306.243927,479.360199 
	C312.433350,480.326019 318.838745,481.587280 325.603760,482.968689 
z"/>
<path fill="#7431F1" opacity="1.000000" stroke="none" 
	d="
M739.375305,383.010925 
	C738.405029,378.714630 737.749268,374.199707 737.090515,369.262268 
	C741.156921,372.893341 741.419128,377.657074 739.375305,383.010925 
z"/>
<path fill="#6F28F1" opacity="1.000000" stroke="none" 
	d="
M290.404236,476.751190 
	C284.417267,475.998474 278.302979,474.940643 272.111938,473.510254 
	C276.432281,473.742950 280.841003,474.276611 285.220673,474.989105 
	C286.939636,475.268707 288.593475,475.948517 290.404236,476.751190 
z"/>
<path fill="#7E41F0" opacity="1.000000" stroke="none" 
	d="
M502.038574,233.377365 
	C502.230499,233.044495 502.578583,232.949005 502.875854,233.033157 
	C507.502350,234.342575 512.122253,235.675247 517.148499,237.044281 
	C512.443665,239.685455 507.209656,238.532730 502.038574,233.377365 
z"/>
<path fill="#6F28F1" opacity="1.000000" stroke="none" 
	d="
M267.491333,473.043243 
	C264.903290,473.405701 261.858551,473.818298 258.800140,473.999329 
	C253.727478,474.299561 248.646011,474.450867 243.314240,474.395172 
	C251.049637,473.746735 259.039062,473.368011 267.491333,473.043243 
z"/>
<path fill="#8650F2" opacity="1.000000" stroke="none" 
	d="
M559.680176,847.251343 
	C560.370728,842.217712 564.890564,841.598999 568.942444,840.277039 
	C566.131531,842.721619 563.069092,844.946167 559.680176,847.251343 
z"/>
<path fill="#8650F2" opacity="1.000000" stroke="none" 
	d="
M478.824646,854.893311 
	C483.177612,854.092896 485.062775,857.232422 486.888184,860.803467 
	C484.239258,859.162476 481.599609,857.161011 478.824646,854.893311 
z"/>
<path fill="#8650F2" opacity="1.000000" stroke="none" 
	d="
M460.838348,841.834839 
	C463.767639,843.507385 466.838226,845.451294 469.919952,847.752075 
	C466.947296,846.107971 463.963440,844.107117 460.838348,841.834839 
z"/>
<path fill="#7431F1" opacity="1.000000" stroke="none" 
	d="
M616.618164,260.090729 
	C616.603455,263.982758 616.291748,268.089844 615.953064,272.656738 
	C612.983765,268.751465 614.698547,264.530060 616.618164,260.090729 
z"/>
<path fill="#8650F2" opacity="1.000000" stroke="none" 
	d="
M580.738525,833.276978 
	C580.867432,828.283203 585.503967,829.500244 588.774475,828.112488 
	C586.467651,829.836426 583.767212,831.515137 580.738525,833.276978 
z"/>
<path fill="#7431F1" opacity="1.000000" stroke="none" 
	d="
M373.904053,499.647552 
	C370.166290,498.456665 366.214752,496.986267 362.156189,495.165192 
	C365.929535,496.332367 369.809906,497.850189 373.904053,499.647552 
z"/>
<path fill="#7431F1" opacity="1.000000" stroke="none" 
	d="
M639.574829,505.858643 
	C636.833984,507.525787 633.724609,509.240814 630.227905,510.902252 
	C632.962463,509.201294 636.084290,507.553925 639.574829,505.858643 
z"/>
<path fill="#8650F2" opacity="1.000000" stroke="none" 
	d="
M433.909363,825.796814 
	C436.451691,826.838745 439.162201,828.138916 441.882690,829.799133 
	C439.287598,828.791138 436.682556,827.423157 433.909363,825.796814 
z"/>
<path fill="#7431F1" opacity="1.000000" stroke="none" 
	d="
M382.118408,803.346313 
	C385.557281,804.253784 389.226746,805.439209 393.100403,806.969238 
	C389.652740,806.084045 386.000885,804.854126 382.118408,803.346313 
z"/>
<path fill="#8650F2" opacity="1.000000" stroke="none" 
	d="
M442.064209,830.386230 
	C444.197845,831.224426 446.532379,832.333435 448.873993,833.807251 
	C446.675781,833.000366 444.470428,831.828735 442.064209,830.386230 
z"/>
<path fill="#7431F1" opacity="1.000000" stroke="none" 
	d="
M629.544556,510.796204 
	C627.740906,512.041687 625.578064,513.301880 623.223267,514.311707 
	C625.082703,512.977844 627.133972,511.894379 629.544556,510.796204 
z"/>
<path fill="#7431F1" opacity="1.000000" stroke="none" 
	d="
M626.427979,428.353821 
	C626.558838,425.847931 627.049561,423.145081 627.885925,420.251282 
	C627.750305,422.759186 627.269043,425.458008 626.427979,428.353821 
z"/>
<path fill="#8650F2" opacity="1.000000" stroke="none" 
	d="
M547.875916,856.266602 
	C546.850830,853.060059 548.774597,852.215759 551.907959,852.233276 
	C550.919739,853.611511 549.541321,854.887024 547.875916,856.266602 
z"/>
<path fill="#8650F2" opacity="1.000000" stroke="none" 
	d="
M572.646912,838.290405 
	C574.071655,836.984741 575.824280,835.612610 577.915161,834.409607 
	C576.493835,835.793762 574.734314,837.008789 572.646912,838.290405 
z"/>
<path fill="#7431F1" opacity="1.000000" stroke="none" 
	d="
M652.602051,499.891296 
	C650.868774,500.891663 648.772827,501.932770 646.284424,502.956970 
	C648.007812,501.937347 650.123535,500.934662 652.602051,499.891296 
z"/>
<path fill="#7431F1" opacity="1.000000" stroke="none" 
	d="
M380.891296,502.663757 
	C378.831116,502.136719 376.551208,501.337341 374.154358,500.188843 
	C376.248779,500.690308 378.460175,501.540863 380.891296,502.663757 
z"/>
<path fill="#7431F1" opacity="1.000000" stroke="none" 
	d="
M734.351318,389.896729 
	C735.180603,388.361481 736.346375,386.795807 737.842773,385.139771 
	C737.011475,386.654999 735.849609,388.260651 734.351318,389.896729 
z"/>
<path fill="#7E41F0" opacity="1.000000" stroke="none" 
	d="
M522.013245,163.544037 
	C520.492920,163.190140 518.805786,162.545074 517.067993,161.541809 
	C518.627075,161.873337 520.236755,162.563095 522.013245,163.544037 
z"/>
<path fill="#7431F1" opacity="1.000000" stroke="none" 
	d="
M729.351196,365.037170 
	C728.991577,364.990997 729.007874,364.535217 728.997253,364.307434 
	C730.986816,364.761871 732.987061,365.444153 735.100952,366.454346 
	C733.380005,366.216003 731.545410,365.649689 729.351196,365.037170 
z"/>
<path fill="#8650F2" opacity="1.000000" stroke="none" 
	d="
M552.563293,852.281372 
	C553.354431,851.290344 554.468506,850.248718 555.934814,849.386475 
	C555.153442,850.454163 554.019836,851.342468 552.563293,852.281372 
z"/>
<path fill="#8650F2" opacity="1.000000" stroke="none" 
	d="
M449.033081,834.405212 
	C450.522583,834.895874 452.192596,835.664856 453.872864,836.802795 
	C452.326630,836.342346 450.770111,835.512939 449.033081,834.405212 
z"/>
<path fill="#8650F2" opacity="1.000000" stroke="none" 
	d="
M429.063202,823.395081 
	C430.480225,823.625671 432.102051,824.125732 433.596832,825.026123 
	C432.069214,824.839172 430.668610,824.251831 429.063202,823.395081 
z"/>
<path fill="#7E41F0" opacity="1.000000" stroke="none" 
	d="
M499.084045,227.307037 
	C499.128174,226.966644 499.564362,226.996063 499.782959,226.998337 
	C500.319275,228.138168 500.636963,229.275726 500.896332,230.794312 
	C500.238617,229.999359 499.639282,228.823380 499.084045,227.307037 
z"/>
<path fill="#8650F2" opacity="1.000000" stroke="none" 
	d="
M474.838318,851.764526 
	C476.007385,852.213013 477.318909,852.929688 478.580444,854.009705 
	C477.347168,853.592957 476.163971,852.812866 474.838318,851.764526 
z"/>
<path fill="#8650F2" opacity="1.000000" stroke="none" 
	d="
M543.316040,859.914490 
	C543.844177,859.072937 544.650085,858.085449 545.847534,857.162109 
	C545.357239,858.073608 544.475525,858.921082 543.316040,859.914490 
z"/>
<path fill="#7431F1" opacity="1.000000" stroke="none" 
	d="
M657.582153,497.716003 
	C656.511108,498.410309 655.094055,499.191711 653.281250,499.952148 
	C654.335693,499.221832 655.785889,498.512482 657.582153,497.716003 
z"/>
<path fill="#8650F2" opacity="1.000000" stroke="none" 
	d="
M457.015808,839.405762 
	C458.143311,839.630310 459.435730,840.131714 460.594666,841.021118 
	C459.367676,840.833679 458.274200,840.258179 457.015808,839.405762 
z"/>
<path fill="#7431F1" opacity="1.000000" stroke="none" 
	d="
M410.235596,260.552856 
	C409.491760,259.795288 408.750122,258.694824 408.022888,257.225739 
	C408.770813,257.974762 409.504303,259.092377 410.235596,260.552856 
z"/>
<path fill="#7431F1" opacity="1.000000" stroke="none" 
	d="
M643.615784,503.866089 
	C642.835632,504.544006 641.714905,505.257172 640.224854,505.933624 
	C640.995361,505.231750 642.135254,504.566559 643.615784,503.866089 
z"/>
<path fill="#7E41F0" opacity="1.000000" stroke="none" 
	d="
M518.160950,237.336517 
	C518.995239,236.611359 520.200745,235.832626 521.792358,235.111389 
	C520.963074,235.873550 519.747620,236.578247 518.160950,237.336517 
z"/>
<path fill="#8650F2" opacity="1.000000" stroke="none" 
	d="
M425.062195,821.383057 
	C426.188843,821.551392 427.515106,821.982544 428.860809,822.796204 
	C427.674072,822.667786 426.467926,822.156799 425.062195,821.383057 
z"/>
<path fill="#8650F2" opacity="1.000000" stroke="none" 
	d="
M422.282928,820.136230 
	C422.925842,820.166138 423.837158,820.372375 424.835022,820.877808 
	C424.131500,820.888855 423.341400,820.600769 422.282928,820.136230 
z"/>
<path fill="#7431F1" opacity="1.000000" stroke="none" 
	d="
M304.952026,478.637634 
	C303.645538,478.849915 302.100464,478.748993 300.297485,478.366791 
	C301.597565,478.165161 303.155457,478.244812 304.952026,478.637634 
z"/>
<path fill="#8650F2" opacity="1.000000" stroke="none" 
	d="
M470.078857,848.327026 
	C470.884247,848.530334 471.871735,848.985046 472.867798,849.807495 
	C472.004578,849.642944 471.132782,849.110657 470.078857,848.327026 
z"/>
<path fill="#8650F2" opacity="1.000000" stroke="none" 
	d="
M556.835449,849.339722 
	C557.192200,848.650146 557.824829,847.889099 558.849243,847.230713 
	C558.531189,847.978333 557.821289,848.623291 556.835449,849.339722 
z"/>
<path fill="#8650F2" opacity="1.000000" stroke="none" 
	d="
M454.036011,837.380005 
	C454.855957,837.561584 455.856781,837.996704 456.868164,838.801697 
	C455.991425,838.658936 455.104156,838.146240 454.036011,837.380005 
z"/>
<path fill="#7E41F0" opacity="1.000000" stroke="none" 
	d="
M244.758667,779.686279 
	C244.985870,779.950806 244.993439,780.419312 245.004990,780.653320 
	C244.032623,780.551575 243.048706,780.215820 241.930878,779.600098 
	C242.708466,779.354004 243.619965,779.387878 244.758667,779.686279 
z"/>
<path fill="#7E41F0" opacity="1.000000" stroke="none" 
	d="
M238.896774,777.565369 
	C239.746857,777.717773 240.724121,778.164001 241.727081,778.970947 
	C240.843185,778.840881 239.933563,778.350037 238.896774,777.565369 
z"/>
<path fill="#7E41F0" opacity="1.000000" stroke="none" 
	d="
M236.869720,775.442810 
	C237.471481,775.621826 238.155884,776.093506 238.775223,776.928223 
	C238.124222,776.772644 237.538300,776.254028 236.869720,775.442810 
z"/>
<path fill="#6F28F1" opacity="1.000000" stroke="none" 
	d="
M358.956726,249.367493 
	C359.535400,249.541763 360.227722,249.996475 360.917603,250.803589 
	C360.300232,250.653320 359.685272,250.150635 358.956726,249.367493 
z"/>
<path fill="#7E41F0" opacity="1.000000" stroke="none" 
	d="
M522.457214,235.114624 
	C522.604370,234.514481 523.034302,233.812668 523.820435,233.117065 
	C523.697693,233.753174 523.218872,234.383072 522.457214,235.114624 
z"/>
<path fill="#7431F1" opacity="1.000000" stroke="none" 
	d="
M361.914856,494.635620 
	C361.182037,494.684540 360.244873,494.451660 359.182190,493.859772 
	C359.941254,493.785126 360.825897,494.069489 361.914856,494.635620 
z"/>
<path fill="#7431F1" opacity="1.000000" stroke="none" 
	d="
M371.946899,220.766357 
	C371.606781,220.748337 371.148865,220.513062 370.864532,220.128174 
	C371.364838,220.081360 371.628479,220.271545 371.946899,220.766357 
z"/>
<path fill="#7431F1" opacity="1.000000" stroke="none" 
	d="
M645.671814,502.911987 
	C645.494568,503.221802 645.010071,503.572144 644.200867,503.924316 
	C644.372253,503.601593 644.868408,503.277069 645.671814,502.911987 
z"/>
<path fill="#8650F2" opacity="1.000000" stroke="none" 
	d="
M569.540771,840.306152 
	C569.665833,839.935974 570.087463,839.523865 570.842407,839.137939 
	C570.729614,839.530884 570.283508,839.897583 569.540771,840.306152 
z"/>
<path fill="#8650F2" opacity="1.000000" stroke="none" 
	d="
M472.985657,850.391113 
	C473.433716,850.327393 474.022247,850.524109 474.642395,851.052856 
	C474.158051,851.140503 473.642090,850.895996 472.985657,850.391113 
z"/>
<path fill="#7431F1" opacity="1.000000" stroke="none" 
	d="
M618.672668,256.995422 
	C618.776245,257.443390 618.596863,258.054169 618.113892,258.795654 
	C618.003418,258.336975 618.196533,257.747589 618.672668,256.995422 
z"/>
<path fill="#8650F2" opacity="1.000000" stroke="none" 
	d="
M578.700928,834.404785 
	C578.806580,834.013733 579.187378,833.596558 579.900635,833.278320 
	C579.814087,833.711060 579.395081,834.044861 578.700928,834.404785 
z"/>
<path fill="#7431F1" opacity="1.000000" stroke="none" 
	d="
M411.225342,262.864594 
	C410.880310,262.672089 410.481537,262.123566 410.107697,261.218994 
	C410.478943,261.411469 410.825317,261.960022 411.225342,262.864594 
z"/>
<path fill="#8650F2" opacity="1.000000" stroke="none" 
	d="
M589.391541,828.161743 
	C589.554504,827.836365 590.017456,827.461548 590.804565,827.094421 
	C590.649719,827.438904 590.170654,827.775635 589.391541,828.161743 
z"/>
<path fill="#7431F1" opacity="1.000000" stroke="none" 
	d="
M615.859924,273.351044 
	C616.203735,273.518036 616.570679,274.007568 616.910828,274.829651 
	C616.550354,274.665985 616.216736,274.169769 615.859924,273.351044 
z"/>
<path fill="#7431F1" opacity="1.000000" stroke="none" 
	d="
M626.006714,430.581482 
	C625.869751,430.316864 625.830872,429.667480 626.028687,428.811249 
	C626.211792,429.135193 626.158264,429.665924 626.006714,430.581482 
z"/>
<path fill="#7E41F0" opacity="1.000000" stroke="none" 
	d="
M500.827606,231.387085 
	C501.160858,231.540802 501.545685,231.993195 501.937256,232.770325 
	C501.589050,232.625305 501.234100,232.155548 500.827606,231.387085 
z"/>
<path fill="#5F11F1" opacity="1.000000" stroke="none" 
	d="
M731.325928,391.234589 
	C731.506531,390.748901 732.011353,390.404388 732.838989,390.043701 
	C732.657898,390.476959 732.154114,390.926331 731.325928,391.234589 
z"/>
<path fill="#8650F2" opacity="1.000000" stroke="none" 
	d="
M546.418701,857.184387 
	C546.349182,856.945557 546.533142,856.644348 546.997009,856.361755 
	C547.075378,856.627563 546.873840,856.874817 546.418701,857.184387 
z"/>
<path fill="#7431F1" opacity="1.000000" stroke="none" 
	d="
M654.673889,220.851990 
	C654.715027,221.050797 654.491577,221.393829 653.968323,221.836838 
	C653.915466,221.623291 654.162354,221.309769 654.673889,220.851990 
z"/>
<path fill="#8650F2" opacity="1.000000" stroke="none" 
	d="
M571.378052,839.139587 
	C571.315430,838.909119 571.513550,838.612549 571.992188,838.303101 
	C572.061462,838.551331 571.850159,838.812378 571.378052,839.139587 
z"/>
<path fill="#8650F2" opacity="1.000000" stroke="none" 
	d="
M591.332275,827.099854 
	C591.282532,826.870972 591.496460,826.593018 591.985291,826.319214 
	C592.038818,826.565857 591.817444,826.808289 591.332275,827.099854 
z"/>
<path fill="#7E41F0" opacity="1.000000" stroke="none" 
	d="
M523.248047,164.631378 
	C523.033264,164.724472 522.669861,164.556213 522.190613,164.101257 
	C522.416321,163.999710 522.757935,164.184860 523.248047,164.631378 
z"/>
<path fill="#6F28F1" opacity="1.000000" stroke="none" 
	d="
M357.854614,248.311768 
	C358.053772,248.232361 358.395599,248.405304 358.858826,248.844513 
	C358.652588,248.928574 358.324951,248.746353 357.854614,248.311768 
z"/>
<path fill="#6F28F1" opacity="1.000000" stroke="none" 
	d="
M375.949890,266.304626 
	C376.173859,266.226868 376.479248,266.417694 376.875946,266.870758 
	C376.655304,266.946411 376.343292,266.759796 375.949890,266.304626 
z"/>
<path fill="#6F28F1" opacity="1.000000" stroke="none" 
	d="
M374.849091,265.313293 
	C375.050323,265.231537 375.394165,265.402679 375.858978,265.840912 
	C375.650543,265.927399 375.321106,265.746796 374.849091,265.313293 
z"/>
<path fill="#7431F1" opacity="1.000000" stroke="none" 
	d="
M617.606689,258.850983 
	C617.728943,259.152252 617.550293,259.466431 617.103821,259.864563 
	C616.992615,259.587006 617.149231,259.225464 617.606689,258.850983 
z"/>
<path fill="#6F28F1" opacity="1.000000" stroke="none" 
	d="
M367.968018,258.292603 
	C368.178772,258.248627 368.478668,258.476654 368.864471,258.982513 
	C368.652618,259.028412 368.354889,258.796539 367.968018,258.292603 
z"/>
<path fill="#6F28F1" opacity="1.000000" stroke="none" 
	d="
M366.897369,257.295105 
	C367.086456,257.229858 367.414703,257.411163 367.863434,257.852478 
	C367.668121,257.922180 367.352325,257.731903 366.897369,257.295105 
z"/>
<path fill="#7431F1" opacity="1.000000" stroke="none" 
	d="
M620.689453,254.865097 
	C620.744507,255.056366 620.550171,255.394760 620.079346,255.847336 
	C620.015320,255.645096 620.227661,255.328659 620.689453,254.865097 
z"/>
<path fill="#7431F1" opacity="1.000000" stroke="none" 
	d="
M622.673340,252.821808 
	C622.720337,253.017746 622.510925,253.372177 622.003296,253.833832 
	C621.942383,253.620804 622.179626,253.300552 622.673340,252.821808 
z"/>
<path fill="#6F28F1" opacity="1.000000" stroke="none" 
	d="
M361.967896,252.292603 
	C362.179718,252.245377 362.478424,252.469940 362.865845,252.968475 
	C362.654633,253.016418 362.354675,252.790405 361.967896,252.292603 
z"/>
<path fill="#7431F1" opacity="1.000000" stroke="none" 
	d="
M624.669312,250.834290 
	C624.710022,251.032486 624.487671,251.383194 623.960571,251.833923 
	C623.906006,251.618210 624.156128,251.302490 624.669312,250.834290 
z"/>
<path fill="#6F28F1" opacity="1.000000" stroke="none" 
	d="
M360.958221,251.297134 
	C361.175140,251.224670 361.475952,251.418488 361.875061,251.869186 
	C361.662903,251.938522 361.352539,251.750961 360.958221,251.297134 
z"/>
<path fill="#6F28F1" opacity="1.000000" stroke="none" 
	d="
M376.964050,267.292786 
	C377.176666,267.223175 377.476532,267.417480 377.875366,267.867798 
	C377.666656,267.934784 377.358978,267.745728 376.964050,267.292786 
z"/>
<path fill="#6F28F1" opacity="1.000000" stroke="none" 
	d="
M355.873810,246.307800 
	C356.063232,246.267395 356.400391,246.481888 356.844177,246.984619 
	C356.641052,247.036148 356.331299,246.799423 355.873810,246.307800 
z"/>
<path fill="#7431F1" opacity="1.000000" stroke="none" 
	d="
M632.688477,242.954071 
	C632.730530,243.174789 632.491394,243.474808 631.966553,243.854218 
	C631.922974,243.633514 632.165100,243.333435 632.688477,242.954071 
z"/>
<path fill="#7431F1" opacity="1.000000" stroke="none" 
	d="
M633.674194,241.827957 
	C633.756165,242.030533 633.583923,242.378754 633.139404,242.847473 
	C633.051392,242.636536 633.235657,242.305069 633.674194,241.827957 
z"/>
<path fill="#6F28F1" opacity="1.000000" stroke="none" 
	d="
M351.956421,242.299774 
	C352.176666,242.245773 352.478119,242.466232 352.867004,242.961212 
	C352.648865,243.015228 352.343262,242.794739 351.956421,242.299774 
z"/>
<path fill="#6F28F1" opacity="1.000000" stroke="none" 
	d="
M350.923767,241.148865 
	C351.131561,241.097458 351.442047,241.332016 351.865601,241.837143 
	C351.661255,241.883423 351.343872,241.659134 350.923767,241.148865 
z"/>
<path fill="#7431F1" opacity="1.000000" stroke="none" 
	d="
M636.683716,238.944763 
	C636.728577,239.169312 636.490601,239.473450 635.963745,239.854507 
	C635.916931,239.629074 636.158936,239.326721 636.683716,238.944763 
z"/>
<path fill="#7431F1" opacity="1.000000" stroke="none" 
	d="
M637.680481,237.840393 
	C637.757812,238.037521 637.584167,238.381119 637.142944,238.848053 
	C637.060059,238.643234 637.244751,238.315048 637.680481,237.840393 
z"/>
<path fill="#7431F1" opacity="1.000000" stroke="none" 
	d="
M639.678589,235.941711 
	C639.725464,236.172028 639.486328,236.474792 638.958374,236.854034 
	C638.910522,236.625076 639.151550,236.319626 639.678589,235.941711 
z"/>
<path fill="#7431F1" opacity="1.000000" stroke="none" 
	d="
M640.677612,234.925446 
	C640.758911,235.153198 640.568726,235.461304 640.113892,235.858948 
	C640.034851,235.634262 640.220520,235.320023 640.677612,234.925446 
z"/>
<path fill="#7431F1" opacity="1.000000" stroke="none" 
	d="
M641.683716,233.935593 
	C641.760803,234.157791 641.568604,234.460464 641.118774,234.861206 
	C641.045532,234.644852 641.229980,234.330460 641.683716,233.935593 
z"/>
<path fill="#7431F1" opacity="1.000000" stroke="none" 
	d="
M737.071533,368.664673 
	C736.848633,368.765564 736.545898,368.575012 736.160400,368.122345 
	C736.382385,368.031250 736.687073,368.202240 737.071533,368.664673 
z"/>
<path fill="#7431F1" opacity="1.000000" stroke="none" 
	d="
M652.670410,222.798248 
	C652.756348,222.999573 652.587769,223.355438 652.147827,223.840836 
	C652.056152,223.631180 652.236023,223.291962 652.670410,222.798248 
z"/>
<path fill="#7431F1" opacity="1.000000" stroke="none" 
	d="
M651.672607,223.921661 
	C651.756042,224.152237 651.566162,224.459885 651.112549,224.858521 
	C651.032227,224.632599 651.215698,224.315689 651.672607,223.921661 
z"/>
<path fill="#7431F1" opacity="1.000000" stroke="none" 
	d="
M382.190247,503.586731 
	C381.854095,503.729553 381.539642,503.558197 381.129791,503.126831 
	C381.426941,503.002045 381.819458,503.137268 382.190247,503.586731 
z"/>
<path fill="#7431F1" opacity="1.000000" stroke="none" 
	d="
M650.676147,224.939056 
	C650.721191,225.171860 650.476562,225.475113 649.939331,225.853516 
	C649.893372,225.622269 650.139893,225.315887 650.676147,224.939056 
z"/>
<path fill="#7E41F0" opacity="1.000000" stroke="none" 
	d="
M237.670105,477.848755 
	C237.749023,478.042633 237.582443,478.382141 237.153122,478.844757 
	C237.068451,478.643402 237.246521,478.318909 237.670105,477.848755 
z"/>
<path fill="#7E41F0" opacity="1.000000" stroke="none" 
	d="
M239.658997,475.896606 
	C239.699356,476.118256 239.454910,476.437683 238.906799,476.830231 
	C238.860168,476.600342 239.117172,476.297363 239.658997,475.896606 
z"/>
<path fill="#7431F1" opacity="1.000000" stroke="none" 
	d="
M642.673340,232.818481 
	C642.755310,233.018265 642.583496,233.368958 642.139832,233.844025 
	C642.051819,233.635406 642.235718,233.302399 642.673340,232.818481 
z"/>
<path fill="#7431F1" opacity="1.000000" stroke="none" 
	d="
M738.301270,385.048523 
	C738.193359,384.843384 738.336914,384.543121 738.708252,384.133179 
	C738.808289,384.333466 738.680481,384.643433 738.301270,385.048523 
z"/>
<path fill="#7431F1" opacity="1.000000" stroke="none" 
	d="
M736.184082,367.578613 
	C735.867798,367.719543 735.556641,367.542633 735.168030,367.098389 
	C735.456726,366.974274 735.822998,367.117554 736.184082,367.578613 
z"/>
<path fill="#7431F1" opacity="1.000000" stroke="none" 
	d="
M385.046997,233.719833 
	C384.872620,233.754990 384.562683,233.548309 384.144348,233.077835 
	C384.327789,233.035355 384.619598,233.256683 385.046997,233.719833 
z"/>
<path fill="#6F28F1" opacity="1.000000" stroke="none" 
	d="
M385.970947,276.287170 
	C386.156067,276.228424 386.480103,276.424255 386.948975,276.872162 
	C386.765808,276.930054 386.437866,276.735901 385.970947,276.287170 
z"/>
<path fill="#7431F1" opacity="1.000000" stroke="none" 
	d="
M616.846741,275.326843 
	C617.011353,275.310791 617.229248,275.520416 617.288574,275.842590 
	C617.130005,275.955109 616.899963,275.552521 616.846741,275.326843 
z"/>
<path fill="#6F28F1" opacity="1.000000" stroke="none" 
	d="
M377.970734,268.290253 
	C378.180420,268.242981 378.478546,268.465515 378.866333,268.960114 
	C378.657074,269.008148 378.358124,268.784088 377.970734,268.290253 
z"/>
<path fill="#FFFFFF" opacity="1.000000" stroke="none" 
	d="
M433.038055,437.414429 
	C433.038055,437.414429 433.204773,437.223358 433.068542,436.786438 
	C431.981415,434.858276 431.030518,433.367035 430.079590,431.875793 
	C430.079590,431.875793 430.075226,431.971558 430.084045,431.586792 
	C427.401703,421.534271 423.814972,412.010254 422.234039,402.164185 
	C419.992218,388.201935 422.629211,374.424927 427.130554,361.059418 
	C427.130554,361.059418 427.056213,361.023529 427.326233,360.832062 
	C428.447144,358.112793 429.298096,355.584961 430.148987,353.057129 
	C430.148987,353.057129 430.055115,353.079132 430.387909,353.133636 
	C430.859100,352.804993 430.997498,352.421844 431.135864,352.038666 
	C431.135864,352.038666 431.051971,352.030487 431.304993,351.889496 
	C431.759796,351.176208 431.961517,350.603943 432.163239,350.031647 
	C432.163239,350.031647 432.062347,350.034515 432.353821,349.900360 
	C433.485992,348.207306 434.326721,346.648407 435.167480,345.089539 
	C435.167511,345.089539 435.099762,345.039520 435.352783,344.891479 
	C436.139252,343.802612 436.672729,342.861725 437.206207,341.920868 
	C446.153320,330.234589 456.767151,320.394714 469.923157,312.462280 
	C470.973053,311.744659 471.533844,311.394104 472.094635,311.043518 
	C472.094635,311.043518 472.018158,311.023682 472.365326,310.990540 
	C474.194672,310.025696 475.676849,309.093933 477.159027,308.162201 
	C477.159027,308.162201 477.054321,308.109497 477.423096,308.162079 
	C478.907471,307.530182 480.023071,306.845734 481.138702,306.161255 
	C481.138702,306.161255 481.042542,306.123383 481.400208,306.252197 
	C482.545074,305.946014 483.332275,305.511017 484.119476,305.076050 
	C484.119476,305.076050 484.024139,305.071655 484.419983,305.082153 
	C497.739105,299.497803 511.030243,297.624939 524.857300,301.117737 
	C531.548706,302.807983 538.244812,304.479584 544.938782,306.159668 
	C544.938782,306.159668 544.885498,306.087067 544.975708,306.454224 
	C546.364746,307.265839 547.663635,307.710297 548.962463,308.154755 
	C548.962463,308.154755 548.979248,308.062714 549.118530,308.307190 
	C549.831970,308.737488 550.406250,308.923248 550.980469,309.109039 
	C550.980469,309.109039 550.978210,309.032074 551.171265,309.275024 
	C552.562744,310.042389 553.761108,310.566833 554.959534,311.091278 
	C554.959534,311.091278 554.981567,311.016876 555.141479,311.259766 
	C555.861816,311.704956 556.422302,311.907257 556.982727,312.109558 
	C556.982727,312.109558 556.974304,312.031769 557.143799,312.299530 
	C558.858765,313.414978 560.404114,314.262665 561.949524,315.110321 
	C561.949524,315.110321 561.975952,315.032806 562.103027,315.303955 
	C562.804565,315.777069 563.379150,315.979004 563.953674,316.180939 
	C563.953674,316.180939 563.976990,316.059326 563.989380,316.328705 
	C564.322693,316.776245 564.643738,316.954437 564.964722,317.132629 
	C564.964722,317.132629 564.956360,317.046326 565.076782,317.331238 
	C566.100708,318.135010 567.004272,318.653900 567.907837,319.172791 
	C567.907837,319.172791 567.944641,319.092743 568.054749,319.377716 
	C568.743835,319.849792 569.322876,320.036926 569.901855,320.224030 
	C569.901855,320.224030 569.930420,320.104523 569.848999,320.430237 
	C570.145752,320.899536 570.523926,321.043121 570.902161,321.186676 
	C570.902161,321.186676 570.965942,321.105652 570.922974,321.388367 
	C571.232544,321.870789 571.585144,322.070496 571.937744,322.270203 
	C575.012085,325.429810 578.086426,328.589447 581.575378,332.162781 
	C582.315308,332.760559 582.640625,332.944580 582.965942,333.128601 
	C582.965942,333.128601 582.893127,333.036957 582.950562,333.367645 
	C583.688416,334.457245 584.368835,335.216125 585.049194,335.975037 
	C599.598816,355.000702 605.072754,376.689301 603.917725,400.318817 
	C602.898560,421.168427 594.007568,438.757996 581.467102,454.893341 
	C570.522339,468.975555 560.642273,483.674957 556.002197,502.045959 
	C554.874146,511.865356 553.861938,520.920898 552.849670,529.976501 
	C552.849670,529.976501 552.961609,529.950378 552.480530,529.953857 
	C525.981628,529.976257 499.963806,529.995117 473.898834,529.550903 
	C473.557739,523.813416 474.059875,518.339172 472.797363,513.307739 
	C470.467590,504.022949 467.102448,494.997925 464.168701,485.864685 
	C464.168671,485.864685 464.053680,485.938141 464.220703,485.550873 
	C462.623199,481.728699 460.858643,478.293823 459.094116,474.858917 
	C459.094116,474.858917 459.093781,474.951904 459.094055,474.706543 
	C459.094360,474.461182 458.907623,474.030090 458.907623,474.030090 
	C451.535553,463.499451 444.163513,452.968842 436.392578,441.955200 
	C435.358795,440.602417 434.723877,439.732605 434.088959,438.862793 
	C434.088959,438.862793 434.040955,438.949585 434.014832,438.636108 
	C433.671814,438.019897 433.354950,437.717163 433.038055,437.414429 
z"/>
<path fill="#FCFBFF" opacity="1.000000" stroke="none" 
	d="
M526.063171,626.070618 
	C526.063171,626.070618 526.268677,626.180359 526.478333,626.542969 
	C526.713318,628.570251 526.759949,630.234924 526.760864,631.899536 
	C526.797852,699.882996 526.830750,767.866516 526.864258,835.849976 
	C526.595093,836.250671 526.224243,836.616272 526.071960,837.057373 
	C523.988159,843.091309 520.253113,848.049072 513.577271,847.685120 
	C508.090027,847.385986 503.202454,844.261475 500.666443,837.788818 
	C500.267822,834.907349 500.021423,832.756897 500.020081,830.606262 
	C499.978058,762.750549 499.959839,694.894897 499.938019,627.039185 
	C499.938019,627.039185 500.123779,626.733398 500.527863,626.442078 
	C509.309021,626.124023 517.686096,626.097290 526.063171,626.070618 
z"/>
<path fill="#FFFFFF" opacity="1.000000" stroke="none" 
	d="
M560.963806,558.899902 
	C562.619446,558.959900 564.275024,559.019836 566.431824,559.292725 
	C566.932983,559.505554 567.106323,559.959900 567.106323,559.959900 
	C566.808472,567.009094 567.468628,574.269104 565.974731,581.054993 
	C564.028198,589.897095 557.486389,595.409119 548.183228,598.306274 
	C546.720642,598.667786 545.869141,598.853516 545.017578,599.039246 
	C531.307068,599.008667 517.596497,598.978149 503.030640,598.980164 
	C501.132233,599.042603 500.089111,599.072510 499.045990,599.102417 
	C494.661255,599.046509 490.276550,598.990662 485.033508,598.942993 
	C481.789551,598.599121 479.403839,598.247131 477.018158,597.895203 
	C477.018158,597.895203 477.029968,597.973572 476.997620,597.603271 
	C476.320312,596.955383 475.675293,596.677734 475.030273,596.400146 
	C460.297821,588.174805 457.379730,573.876038 462.160828,559.128784 
	C466.291748,558.958191 469.623627,558.931396 472.955505,558.904541 
	C473.730286,558.955261 474.505035,559.005981 476.124084,559.025146 
	C481.964355,558.964600 486.960327,558.935730 491.956299,558.906799 
	C496.343201,558.958923 500.730072,559.011108 506.043304,559.031250 
	C519.964905,558.968140 532.960205,558.936951 545.955505,558.905762 
	C550.340942,558.956421 554.726379,559.007080 559.805847,559.015930 
	C560.499878,558.974121 560.963806,558.899902 560.963806,558.899902 
z"/>
<path fill="#5F11F1" opacity="1.000000" stroke="none" 
	d="
M499.637054,627.324463 
	C499.959839,694.894897 499.978058,762.750549 500.020081,830.606262 
	C500.021423,832.756897 500.267822,834.907349 500.489258,837.523560 
	C500.059448,836.721069 499.087372,835.453552 499.086029,834.184937 
	C499.013458,765.810425 499.022003,697.435791 499.036224,629.061218 
	C499.036316,628.577393 499.231812,628.093628 499.637054,627.324463 
z"/>
<path fill="#5F11F1" opacity="1.000000" stroke="none" 
	d="
M527.140503,835.993225 
	C526.830750,767.866516 526.797852,699.882996 526.760864,631.899536 
	C526.759949,630.234924 526.713318,628.570251 526.550049,626.451294 
	C526.932678,627.268250 527.907349,628.539185 527.908813,629.811096 
	C527.984924,698.178345 527.980042,766.545715 527.958374,834.913025 
	C527.958252,835.320862 527.605103,835.728638 527.140503,835.993225 
z"/>
<path fill="#7E41F0" opacity="1.000000" stroke="none" 
	d="
M473.945984,530.013977 
	C499.963806,529.995117 525.981628,529.976257 552.458984,529.900635 
	C551.867188,530.561829 550.818726,531.901794 549.764160,531.906677 
	C525.061829,532.020935 500.358856,532.002563 475.656189,531.935791 
	C474.834167,531.933594 474.014160,531.171875 473.345551,530.368774 
	C473.497864,529.973328 473.945984,530.013977 473.945984,530.013977 
z"/>
<path fill="#7431F1" opacity="1.000000" stroke="none" 
	d="
M426.753143,361.087555 
	C422.629211,374.424927 419.992218,388.201935 422.234039,402.164185 
	C423.814972,412.010254 427.401703,421.534271 430.131134,431.577911 
	C427.885742,427.145325 424.976868,422.528992 423.430145,417.494171 
	C417.706757,398.863800 419.303253,380.331390 425.269409,362.019806 
	C425.393585,361.638733 425.996277,361.413574 426.753143,361.087555 
z"/>
<path fill="#7431F1" opacity="1.000000" stroke="none" 
	d="
M544.780151,305.835938 
	C538.244812,304.479584 531.548706,302.807983 524.857300,301.117737 
	C511.030243,297.624939 497.739105,299.497803 484.428101,305.129181 
	C490.316681,300.022247 498.083984,297.877106 505.600067,298.270844 
	C517.398987,298.888885 529.106384,301.369202 540.825989,303.228546 
	C542.177917,303.443024 543.360413,304.725128 544.780151,305.835938 
z"/>
<path fill="#7431F1" opacity="1.000000" stroke="none" 
	d="
M473.898834,529.550903 
	C473.945984,530.013977 473.497864,529.973328 473.273682,529.967773 
	C472.702301,528.749146 472.011078,527.521729 472.060669,526.325073 
	C472.608673,513.103333 469.348755,500.682312 464.384247,488.592773 
	C464.140594,487.999390 464.156128,487.299530 464.109863,486.256958 
	C467.102448,494.997925 470.467590,504.022949 472.797363,513.307739 
	C474.059875,518.339172 473.557739,523.813416 473.898834,529.550903 
z"/>
<path fill="#7E41F0" opacity="1.000000" stroke="none" 
	d="
M553.175903,529.761108 
	C553.861938,520.920898 554.874146,511.865356 556.001099,502.424011 
	C556.085144,504.550415 556.255920,507.084534 555.985046,509.570496 
	C555.258301,516.239929 554.342712,522.888733 553.175903,529.761108 
z"/>
<path fill="#6F28F1" opacity="1.000000" stroke="none" 
	d="
M545.661377,558.615173 
	C532.960205,558.936951 519.964905,558.968140 506.505676,558.955322 
	C506.605743,558.616028 507.170807,558.061401 507.733612,558.063538 
	C520.278320,558.113525 532.822754,558.224915 545.661377,558.615173 
z"/>
<path fill="#5F11F1" opacity="1.000000" stroke="none" 
	d="
M525.783752,625.748230 
	C517.686096,626.097290 509.309021,626.124023 500.476837,626.270630 
	C500.649323,625.947693 501.278503,625.118225 501.904327,625.120789 
	C509.771271,625.152527 517.637756,625.304565 525.783752,625.748230 
z"/>
<path fill="#7431F1" opacity="1.000000" stroke="none" 
	d="
M459.062439,475.246765 
	C460.858643,478.293823 462.623199,481.728699 464.288452,485.542755 
	C462.469666,482.492828 460.750183,479.063751 459.062439,475.246765 
z"/>
<path fill="#6F28F1" opacity="1.000000" stroke="none" 
	d="
M491.664062,558.615967 
	C486.960327,558.935730 481.964355,558.964600 476.506592,558.948975 
	C481.153778,558.711243 486.262817,558.518127 491.664062,558.615967 
z"/>
<path fill="#7431F1" opacity="1.000000" stroke="none" 
	d="
M429.830597,353.220337 
	C429.298096,355.584961 428.447144,358.112793 427.327637,360.873322 
	C427.876770,358.531891 428.694489,355.957733 429.830597,353.220337 
z"/>
<path fill="#6F28F1" opacity="1.000000" stroke="none" 
	d="
M472.672516,558.619873 
	C469.623627,558.931396 466.291748,558.958191 462.509735,558.927734 
	C465.502899,558.692017 468.946228,558.513611 472.672516,558.619873 
z"/>
<path fill="#6F28F1" opacity="1.000000" stroke="none" 
	d="
M477.224854,598.194885 
	C479.403839,598.247131 481.789551,598.599121 484.570679,599.011963 
	C482.454590,598.880066 479.943054,598.687317 477.224854,598.194885 
z"/>
<path fill="#7431F1" opacity="1.000000" stroke="none" 
	d="
M476.764954,308.102051 
	C475.676849,309.093933 474.194672,310.025696 472.379028,311.027588 
	C473.487305,310.079132 474.929077,309.060547 476.764954,308.102051 
z"/>
<path fill="#7431F1" opacity="1.000000" stroke="none" 
	d="
M561.925049,314.746582 
	C560.404114,314.262665 558.858765,313.414978 557.106140,312.309998 
	C558.566101,312.829407 560.233337,313.606110 561.925049,314.746582 
z"/>
<path fill="#7431F1" opacity="1.000000" stroke="none" 
	d="
M430.059326,432.255005 
	C431.030518,433.367035 431.981415,434.858276 432.995239,436.683014 
	C432.051758,435.555756 431.045410,434.094971 430.059326,432.255005 
z"/>
<path fill="#7431F1" opacity="1.000000" stroke="none" 
	d="
M434.797119,345.088440 
	C434.326721,346.648407 433.485992,348.207306 432.366211,349.949280 
	C432.867004,348.450684 433.646881,346.769012 434.797119,345.088440 
z"/>
<path fill="#7431F1" opacity="1.000000" stroke="none" 
	d="
M585.299561,335.790771 
	C584.368835,335.216125 583.688416,334.457245 582.909180,333.409058 
	C583.723511,333.948700 584.636719,334.777618 585.299561,335.790771 
z"/>
<path fill="#7431F1" opacity="1.000000" stroke="none" 
	d="
M480.772583,306.105133 
	C480.023071,306.845734 478.907471,307.530182 477.446350,308.215851 
	C478.202759,307.494354 479.304626,306.771698 480.772583,306.105133 
z"/>
<path fill="#7431F1" opacity="1.000000" stroke="none" 
	d="
M548.848389,307.809235 
	C547.663635,307.710297 546.364746,307.265839 544.960327,306.496521 
	C546.147949,306.602356 547.441162,307.033020 548.848389,307.809235 
z"/>
<path fill="#7431F1" opacity="1.000000" stroke="none" 
	d="
M554.922974,310.716980 
	C553.761108,310.566833 552.562744,310.042389 551.133789,309.283722 
	C552.230957,309.480530 553.558655,309.911591 554.922974,310.716980 
z"/>
<path fill="#7431F1" opacity="1.000000" stroke="none" 
	d="
M434.061340,439.245544 
	C434.723877,439.732605 435.358795,440.602417 436.114075,441.784607 
	C435.500854,441.274109 434.767273,440.451233 434.061340,439.245544 
z"/>
<path fill="#7431F1" opacity="1.000000" stroke="none" 
	d="
M436.832153,341.977051 
	C436.672729,342.861725 436.139252,343.802612 435.342041,344.932190 
	C435.538208,344.091705 435.998138,343.062469 436.832153,341.977051 
z"/>
<path fill="#7431F1" opacity="1.000000" stroke="none" 
	d="
M567.898376,318.802338 
	C567.004272,318.653900 566.100708,318.135010 565.035645,317.345093 
	C565.879089,317.526642 566.884033,317.979248 567.898376,318.802338 
z"/>
<path fill="#6F28F1" opacity="1.000000" stroke="none" 
	d="
M499.248840,599.355591 
	C500.089111,599.072510 501.132233,599.042603 502.564606,599.057617 
	C501.786469,599.271240 500.619110,599.440002 499.248840,599.355591 
z"/>
<path fill="#6F28F1" opacity="1.000000" stroke="none" 
	d="
M545.222290,599.316162 
	C545.869141,598.853516 546.720642,598.667786 548.006470,598.579712 
	C547.436157,598.982544 546.431641,599.287781 545.222290,599.316162 
z"/>
<path fill="#7431F1" opacity="1.000000" stroke="none" 
	d="
M483.757202,305.056519 
	C483.332275,305.511017 482.545074,305.946014 481.416199,306.301331 
	C481.847992,305.826782 482.621460,305.431915 483.757202,305.056519 
z"/>
<path fill="#6F28F1" opacity="1.000000" stroke="none" 
	d="
M475.140045,596.743286 
	C475.675293,596.677734 476.320312,596.955383 477.028656,597.578613 
	C476.477966,597.644958 475.863892,597.365723 475.140045,596.743286 
z"/>
<path fill="#7431F1" opacity="1.000000" stroke="none" 
	d="
M550.838379,308.822815 
	C550.406250,308.923248 549.831970,308.737488 549.071777,308.307678 
	C549.489258,308.221313 550.092834,308.378967 550.838379,308.822815 
z"/>
<path fill="#7431F1" opacity="1.000000" stroke="none" 
	d="
M471.745056,311.067078 
	C471.533844,311.394104 470.973053,311.744659 470.072449,312.179504 
	C470.286926,311.872711 470.841187,311.481659 471.745056,311.067078 
z"/>
<path fill="#7431F1" opacity="1.000000" stroke="none" 
	d="
M556.836243,311.829346 
	C556.422302,311.907257 555.861816,311.704956 555.104858,311.272644 
	C555.502136,311.211456 556.095947,311.380310 556.836243,311.829346 
z"/>
<path fill="#7431F1" opacity="1.000000" stroke="none" 
	d="
M563.824341,315.884033 
	C563.379150,315.979004 562.804565,315.777069 562.063232,315.313843 
	C562.495972,315.230743 563.095459,315.408936 563.824341,315.884033 
z"/>
<path fill="#7431F1" opacity="1.000000" stroke="none" 
	d="
M569.783203,319.919128 
	C569.322876,320.036926 568.743835,319.849792 568.010742,319.376038 
	C568.459229,319.264343 569.061890,319.439301 569.783203,319.919128 
z"/>
<path fill="#7431F1" opacity="1.000000" stroke="none" 
	d="
M431.868958,350.166687 
	C431.961517,350.603943 431.759796,351.176208 431.310120,351.931335 
	C431.233032,351.510010 431.403839,350.905853 431.868958,350.166687 
z"/>
<path fill="#7431F1" opacity="1.000000" stroke="none" 
	d="
M433.116150,437.744232 
	C433.354950,437.717163 433.671814,438.019897 434.061768,438.652039 
	C433.821320,438.678955 433.507782,438.376495 433.116150,437.744232 
z"/>
<path fill="#6F28F1" opacity="1.000000" stroke="none" 
	d="
M560.887756,558.734680 
	C560.963806,558.899902 560.499878,558.974121 560.267639,558.938599 
	C560.294189,558.791931 560.552917,558.680664 560.887756,558.734680 
z"/>
<path fill="#7431F1" opacity="1.000000" stroke="none" 
	d="
M458.736511,474.134064 
	C458.907623,474.030090 459.094360,474.461182 459.138245,474.692078 
	C458.976562,474.694672 458.770966,474.466339 458.736511,474.134064 
z"/>
<path fill="#6F28F1" opacity="1.000000" stroke="none" 
	d="
M567.267578,559.845337 
	C567.106323,559.959900 566.932983,559.505554 566.845825,559.278564 
	C566.981995,559.277954 567.205383,559.504395 567.267578,559.845337 
z"/>
<path fill="#7431F1" opacity="1.000000" stroke="none" 
	d="
M430.874207,352.129059 
	C430.997498,352.421844 430.859100,352.804993 430.411072,353.175903 
	C430.271790,352.848938 430.442169,352.534180 430.874207,352.129059 
z"/>
<path fill="#7431F1" opacity="1.000000" stroke="none" 
	d="
M582.849243,332.862396 
	C582.640625,332.944580 582.315308,332.760559 581.858948,332.319305 
	C582.062744,332.240112 582.397644,332.418121 582.849243,332.862396 
z"/>
<path fill="#7431F1" opacity="1.000000" stroke="none" 
	d="
M571.856873,321.993988 
	C571.585144,322.070496 571.232544,321.870789 570.877686,321.363647 
	C571.175659,321.276733 571.475830,321.497253 571.856873,321.993988 
z"/>
<path fill="#7431F1" opacity="1.000000" stroke="none" 
	d="
M570.826172,320.916504 
	C570.523926,321.043121 570.145752,320.899536 569.787720,320.434875 
	C570.122009,320.291290 570.436035,320.468811 570.826172,320.916504 
z"/>
<path fill="#7431F1" opacity="1.000000" stroke="none" 
	d="
M564.869934,316.873138 
	C564.643738,316.954437 564.322693,316.776245 563.927490,316.325623 
	C564.160583,316.239960 564.467896,316.426788 564.869934,316.873138 
z"/>
</svg>